<!-- icon666.com - MILLIONS vector ICONS FREE --><svg viewBox="0 0 512 512" xmlns="http://www.w3.org/2000/svg"><g id="Filled_outline" data-name="Filled outline"><path d="m184 456h-160v-224a16 16 0 0 1 16-16h128a16 16 0 0 1 16 16z" fill="#44546c" style="fill: rgb(44, 48, 53);"></path><path d="m168 216h-128v-112h128l32 48h-32z" fill="#fec9a3"></path><path d="m168 72a47.264 47.264 0 0 0 -29.711-43.884l-1.838-.735a47.245 47.245 0 0 0 -17.551-3.381h-29.8a47.245 47.245 0 0 0 -17.553 3.381l-1.838.734a47.266 47.266 0 0 0 -29.709 43.885v32h176a16 16 0 0 0 16-16 16 16 0 0 0 -16-16z" fill="#4d5e78" style="fill: rgb(44, 45, 48);"></path><path d="m40 152v-48h40z" fill="#ffb531" style="fill: rgb(0, 255, 98);"></path><path d="m240 392h184a0 0 0 0 1 0 0v40a24 24 0 0 1 -24 24h-136a24 24 0 0 1 -24-24v-40a0 0 0 0 1 0 0z" fill="#f35244"></path><path d="m364 268h184a0 0 0 0 1 0 0v40a24 24 0 0 1 -24 24h-136a24 24 0 0 1 -24-24v-40a0 0 0 0 1 0 0z" fill="#f35244" transform="matrix(0 -1 1 0 156 756)"></path><path d="m24 456h160v32h-160z" fill="#404f66" style="fill: rgb(36, 48, 66);"></path><path d="m120 72h48a47.215 47.215 0 0 0 -22.229-40h-25.771z" fill="#ffb531" style="fill: rgb(0, 255, 98);"></path><path d="m24 456h64l96-136v-88z" fill="#d6d6d4"></path><path d="m168 344-24.3-72.889a33.8 33.8 0 0 0 -32.061-23.111 33.8 33.8 0 0 0 -31.9 44.964l24.4 69.71a67.686 67.686 0 0 0 63.883 45.326 67.673 67.673 0 0 0 30.269-7.146l85.709-42.854-23.089-57.723z" fill="#4d5e78" style="fill: rgb(44, 45, 48);"></path><path d="m125.089 310.509 28.1-10.927-4.989-14.976a15.474 15.474 0 0 0 -20.287-9.529 15.475 15.475 0 0 0 -8.815 20.03z" fill="#ffb531" style="fill: rgb(0, 255, 98);"></path><path d="m318.72 271.9-22.72 11.752v-5.859a13.793 13.793 0 0 0 -13.793-13.793 13.793 13.793 0 0 0 -13.191 9.761l-8.105 26.516 23.089 57.723 60.723-31.182a16 16 0 0 0 7.4-20.536l-11.345-26.471a16 16 0 0 0 -22.058-7.911z" fill="#b281c7" style="fill: rgb(7, 172, 242);"></path><path d="m216 456h272v32h-272z" fill="#d6d6d4"></path><path d="m80 104-13.333 16h112l-10.667-16z" fill="#fec093"></path><path d="m80 104h-40v16h26.667z" fill="#ffa912"></path><path d="m432 400h32a32.036 32.036 0 0 0 32-32v-136a32.036 32.036 0 0 0 -32-32h-40a8 8 0 0 0 -8 8v124.37l-59.006 51.63h-107.106l37.69-18.845.04-.022 60.759-31.2a24.077 24.077 0 0 0 11.1-30.805l-11.345-26.47a24 24 0 0 0 -33.087-11.858l-12.109 6.263a21.795 21.795 0 0 0 -41.57.364l-7.066 23.121-62.3 29.317v-91.865a24.276 24.276 0 0 0 -16-22.64v-49.36h24a8 8 0 0 0 6.656-12.438l-23.708-35.562h33.052a24 24 0 0 0 0-48h-40.57a54.958 54.958 0 0 0 -34.169-43.312l-1.839-.735a55.021 55.021 0 0 0 -20.522-3.953h-29.8a55.039 55.039 0 0 0 -20.527 3.953l-1.836.735a55 55 0 0 0 -34.737 51.312v137.376a24.038 24.038 0 0 0 -16 22.624v256a8 8 0 0 0 8 8h160a8 8 0 0 0 8-8v-75.91c3.382-1.127 40-19.146 40-19.146v39.056a31.793 31.793 0 0 0 4.305 16h-20.305a8 8 0 0 0 -8 8v32a8 8 0 0 0 8 8h272a8 8 0 0 0 8-8v-32a8 8 0 0 0 -8-8h-60.3a31.793 31.793 0 0 0 4.3-16zm-155.333-123.9a5.793 5.793 0 0 1 11.333 1.693v5.859a8 8 0 0 0 11.675 7.106l22.72-11.75a8 8 0 0 1 11.028 3.955l11.345 26.47a8.026 8.026 0 0 1 -3.7 10.268l-52.905 27.168-10.149-25.369-8.629-21.573zm-133.467 18.786-13.55 5.268-3.2-8.555a7.392 7.392 0 0 1 4.391-9.6 7.393 7.393 0 0 1 9.468 4.455zm32.8 22.575-5.715 8.1-9.5-28.5-4.269-12.808 19.484-27.289zm9.052-173.461h-17.052a8 8 0 0 0 -8 8v56h-112v-53.1l35.747-42.9h79.972zm-137.052-32h14.919l-14.919 17.9zm111.184-48h-31.184v-24h15.509a38.96 38.96 0 0 1 15.675 24zm-111.184 8a39.077 39.077 0 0 1 24.684-36.457l1.836-.735a39.1 39.1 0 0 1 14.58-2.808h22.9v40a8 8 0 0 0 8 8h96a8 8 0 0 1 0 16h-168zm-8 152h128a7.654 7.654 0 0 1 5.545 2.3l.157.157a7.521 7.521 0 0 1 2 3.4l-25.533 35.743a41.739 41.739 0 0 0 -38.53-25.6 41.8 41.8 0 0 0 -39.452 55.607l18.613 53.174-58.8 82.267v-199.048a8.009 8.009 0 0 1 8-8zm57.291 143.212a75.529 75.529 0 0 0 21.846 30.847l-35.281 49.941h-44.3zm78.709 112.788h-144v-16h144zm0-32h-72.554l28.93-40.951a75.113 75.113 0 0 0 43.624 8.517zm18.714-54.3a59.686 59.686 0 0 1 -83.027-33.667l-24.4-69.711a25.8 25.8 0 0 1 24.352-34.322 25.755 25.755 0 0 1 20.428 10.055 23.518 23.518 0 0 0 -20.423 31.95l5.989 15.4a8 8 0 0 0 10.355 4.557l20.274-7.882 12.149 36.447a8 8 0 0 0 11 4.709l85.23-40.108 17.2 43.006zm237.286-177.7h32a16.019 16.019 0 0 1 16 16h-24v16h24v24h-24v16h24v24h-24v16h24v24h-24v16h24a16.019 16.019 0 0 1 -16 16h-32zm-16 137.63v30.37h-34.708zm64 126.37h-256v-16h256zm-96-56v24h-24v-24h-16v24h-24v-24h-16v24h-24v-24h-16v24a16.019 16.019 0 0 1 -16-16v-32h168v32a16.019 16.019 0 0 1 -16 16v-24z" fill="#000000" style="fill: rgb(0, 0, 0);"></path><path d="m237.667 338.718h16v15.232h-16z" transform="matrix(.919 -.394 .394 .919 -116.564 124.776)" fill="#000000" style="fill: rgb(0, 0, 0);"></path></g></svg>