<svg xmlns="http://www.w3.org/2000/svg" xmlns:xlink="http://www.w3.org/1999/xlink" version="1.1" width="1000" height="1000" viewBox="0 0 1000 1000" xml:space="preserve">
<desc>Created with Fabric.js 3.5.0</desc>
<defs>
</defs>
<rect x="0" y="0" width="100%" height="100%" fill="rgba(51,51,51,0)"/>
<g transform="matrix(0.4353 0 0 0.4353 534.3926 386.5784)" id="b18a8e05-3f3c-49b9-b940-e98a12ee3b6f">
<rect style="stroke: none; stroke-width: 1; stroke-dasharray: none; stroke-linecap: butt; stroke-dashoffset: 0; stroke-linejoin: miter; stroke-miterlimit: 4; is-custom-font: none; font-file-url: none; fill: rgb(255,255,255); fill-rule: nonzero; opacity: 1; visibility: hidden;" vector-effect="non-scaling-stroke" x="-540" y="-540" rx="0" ry="0" width="1080" height="1080"/>
</g>
<g transform="matrix(0.3381 0 0 -0.3381 499.9955 499.9941)" id="849957">
<path style="stroke: none; stroke-width: 1; stroke-dasharray: none; stroke-linecap: butt; stroke-dashoffset: 0; stroke-linejoin: miter; stroke-miterlimit: 4; is-custom-font: none; font-file-url: none; fill: rgb(248,193,65); fill-rule: nonzero; opacity: 1;" vector-effect="non-scaling-stroke" transform=" translate(-2027.5, -1923.75)" d="M 1314 3342 C 1308 3338 1300 3308 1296 3275 C 1289 3210 1254 3126 1213 3072 C 1165 3009 1076 2964 970 2951 L 925 2945 L 925 2320 L 925 1695 L 963 1595 C 985 1540 1030 1444 1063 1382 C 1221 1092 1412 907 1869 601 L 2022 498 L 2189 611 C 2542 850 2722 1006 2863 1195 C 2940 1298 3054 1520 3099 1656 L 3130 1747 L 3130 2343 L 3130 2940 L 3108 2944 C 3095 2947 3067 2952 3046 2955 C 2885 2981 2775 3097 2748 3266 C 2743 3304 2733 3338 2726 3342 C 2712 3352 1329 3352 1314 3342 z M 2700 3225 C 2700 3179 2734 3079 2766 3031 C 2816 2954 2907 2901 3013 2885 L 3060 2878 L 3060 2310 L 3060 1742 L 3024 1639 C 2922 1345 2765 1130 2490 909 C 2417 850 2364 813 2178 687 L 2022 581 L 1845 701 C 1608 861 1523 927 1406 1040 C 1209 1230 1092 1415 1006 1672 L 980 1749 L 980 2313 L 980 2877 L 1047 2889 C 1211 2919 1314 3021 1340 3181 C 1345 3216 1350 3248 1350 3253 C 1350 3257 1654 3260 2025 3260 L 2700 3260 L 2700 3225 z" stroke-linecap="round"/>
</g>
<g transform="matrix(0.3381 0 0 -0.3381 499.1115 498.3301)" id="41556">
<path style="stroke: none; stroke-width: 1; stroke-dasharray: none; stroke-linecap: butt; stroke-dashoffset: 0; stroke-linejoin: miter; stroke-miterlimit: 4; is-custom-font: none; font-file-url: none; fill: rgb(248,193,65); fill-rule: nonzero; opacity: 1;" vector-effect="non-scaling-stroke" transform=" translate(-2025, -1928.5)" d="M 1375 3213 C 1328 2983 1252 2903 1038 2856 L 1010 2850 L 1010 2299 L 1010 1748 L 1036 1672 C 1108 1463 1222 1274 1370 1117 C 1495 985 1604 900 1928 680 L 2022 617 L 2168 716 C 2554 976 2728 1138 2864 1363 C 2922 1460 2953 1526 3001 1663 L 3040 1771 L 3040 2304 C 3040 2719 3037 2840 3028 2847 C 3021 2853 2998 2860 2977 2863 C 2922 2872 2838 2913 2793 2953 C 2742 3000 2704 3071 2682 3162 L 2664 3235 L 2022 3238 L 1380 3240 L 1375 3213 z M 1552 3040 C 1548 3010 1530 2997 1530 3025 C 1530 3033 1521 3044 1510 3050 C 1492 3060 1490 3058 1490 3027 C 1490 2988 1505 2970 1538 2970 C 1559 2970 1561 2967 1558 2923 L 1555 2875 L 1506 2872 C 1446 2868 1422 2876 1438 2892 C 1455 2909 1454 3059 1438 3062 C 1431 3063 1452 3066 1485 3069 C 1518 3073 1548 3074 1551 3073 C 1554 3072 1555 3057 1552 3040 z M 1713 3048 C 1737 3019 1734 3013 1700 3018 C 1684 3020 1672 3026 1675 3030 C 1678 3034 1673 3044 1664 3051 C 1650 3062 1646 3061 1634 3045 C 1613 3016 1616 2997 1641 3003 C 1668 3010 1688 3002 1701 2979 C 1709 2962 1707 2960 1680 2960 C 1659 2960 1650 2965 1650 2976 C 1650 2985 1644 2990 1638 2987 C 1631 2985 1626 2974 1627 2964 C 1628 2954 1630 2930 1632 2913 C 1633 2895 1636 2880 1639 2880 C 1652 2880 1678 2914 1673 2926 C 1669 2936 1676 2940 1699 2940 C 1716 2940 1730 2936 1730 2931 C 1730 2911 1676 2870 1650 2870 C 1627 2870 1618 2878 1601 2913 C 1578 2960 1574 3010 1591 3041 C 1613 3083 1680 3087 1713 3048 z M 1996 3064 C 1993 3055 1994 3032 2000 3011 C 2005 2991 2014 2956 2020 2933 C 2028 2901 2036 2890 2050 2890 C 2068 2890 2070 2897 2070 2963 C 2070 3024 2074 3040 2090 3055 C 2131 3092 2190 3068 2190 3014 C 2190 2985 2162 2957 2139 2963 C 2129 2966 2119 2961 2116 2953 C 2106 2929 2109 2890 2121 2890 C 2126 2890 2129 2886 2126 2881 C 2120 2872 1991 2869 1976 2877 C 1972 2880 1973 2886 1980 2890 C 1989 2895 1989 2903 1982 2916 C 1973 2932 1971 2930 1956 2902 C 1938 2868 1906 2859 1896 2886 C 1888 2907 1898 2945 1928 3005 C 1944 3037 1949 3055 1941 3058 C 1920 3065 1941 3080 1972 3080 C 1996 3080 2001 3077 1996 3064 z M 2350 3049 C 2350 3039 2344 3030 2336 3030 C 2316 3030 2300 2977 2294 2895 C 2288 2814 2285 2800 2270 2800 C 2262 2800 2261 2811 2265 2831 C 2270 2852 2267 2865 2257 2873 C 2249 2880 2237 2917 2230 2955 C 2223 2994 2213 3035 2209 3048 C 2201 3068 2203 3070 2236 3070 C 2265 3070 2270 3067 2262 3057 C 2254 3048 2255 3030 2264 2995 C 2277 2941 2284 2943 2295 3008 C 2305 3071 2350 3105 2350 3049 z M 2461 3070 C 2471 3064 2487 3046 2495 3030 L 2511 3000 L 2480 3000 C 2455 3000 2450 3004 2450 3024 C 2450 3053 2431 3068 2419 3049 C 2409 3033 2408 2971 2416 2917 C 2421 2887 2425 2882 2436 2891 C 2444 2897 2450 2915 2450 2931 C 2450 2956 2454 2960 2480 2960 C 2508 2960 2509 2959 2498 2933 C 2483 2896 2453 2870 2426 2870 C 2410 2870 2400 2883 2382 2923 C 2354 2990 2354 3011 2386 3049 C 2413 3082 2430 3086 2461 3070 z M 1844 3059 C 1836 3045 1860 2901 1871 2894 C 1890 2883 1879 2870 1851 2870 C 1823 2870 1822 2871 1816 2940 C 1812 2979 1805 3010 1800 3010 C 1786 3010 1778 2953 1785 2910 C 1791 2872 1791 2870 1766 2870 C 1732 2870 1732 2891 1765 2972 C 1793 3042 1795 3056 1778 3063 C 1771 3066 1784 3069 1808 3069 C 1837 3070 1849 3066 1844 3059 z M 2592 3058 C 2585 3051 2580 3034 2580 3020 C 2580 2988 2597 2970 2628 2970 C 2649 2970 2651 2967 2648 2923 L 2645 2875 L 2591 2872 C 2561 2870 2532 2874 2527 2879 C 2519 2887 2520 2890 2528 2890 C 2545 2890 2545 3056 2528 3063 C 2521 3066 2535 3069 2560 3069 C 2594 3070 2601 3067 2592 3058 z M 2011 2697 C 2006 2690 2003 2674 2007 2662 C 2010 2650 2007 2633 2000 2625 C 1994 2617 1991 2606 1995 2600 C 1999 2594 1996 2583 1990 2575 C 1984 2567 1981 2556 1985 2549 C 1989 2543 1988 2528 1982 2517 C 1976 2505 1969 2487 1966 2478 C 1962 2463 1949 2460 1903 2461 C 1863 2461 1851 2464 1865 2470 C 1880 2476 1876 2477 1848 2477 C 1825 2476 1810 2471 1810 2464 C 1810 2446 1838 2420 1857 2420 C 1868 2420 1864 2428 1844 2446 C 1823 2465 1821 2469 1837 2461 C 1849 2455 1872 2450 1889 2450 C 1926 2450 1930 2430 1899 2399 L 1879 2379 L 1950 2307 L 2021 2235 L 2050 2270 C 2092 2319 2091 2391 2048 2375 C 2041 2372 2030 2360 2025 2347 C 2018 2333 2006 2325 1990 2325 C 1969 2325 1964 2330 1962 2356 C 1959 2385 1963 2390 2009 2414 C 2081 2451 2110 2446 2139 2392 C 2151 2370 2153 2369 2170 2385 C 2186 2399 2187 2405 2177 2421 C 2159 2451 2180 2476 2220 2472 C 2240 2471 2260 2476 2271 2486 C 2287 2501 2287 2504 2259 2549 C 2243 2575 2226 2614 2223 2635 C 2220 2657 2208 2682 2197 2691 C 2167 2715 2181 2760 2218 2760 C 2234 2760 2250 2752 2258 2740 C 2266 2727 2281 2720 2303 2720 C 2322 2720 2359 2709 2385 2695 C 2430 2673 2436 2672 2451 2686 C 2461 2695 2474 2699 2479 2695 C 2485 2692 2490 2696 2490 2705 C 2490 2713 2501 2726 2515 2732 C 2536 2741 2543 2740 2560 2725 C 2586 2702 2586 2674 2560 2660 C 2549 2654 2540 2643 2540 2635 C 2540 2628 2533 2615 2525 2606 C 2511 2593 2512 2587 2534 2555 C 2548 2535 2562 2498 2566 2472 C 2570 2446 2581 2417 2591 2407 C 2602 2397 2610 2384 2610 2377 C 2610 2341 2545 2326 2532 2358 C 2527 2370 2512 2376 2482 2377 C 2451 2378 2426 2388 2391 2413 L 2343 2448 L 2329 2426 C 2321 2415 2315 2389 2315 2370 C 2315 2336 2313 2335 2279 2335 C 2252 2335 2233 2326 2204 2300 L 2165 2266 L 2198 2234 C 2225 2207 2230 2195 2230 2156 C 2230 2116 2233 2110 2251 2110 C 2263 2110 2287 2095 2306 2076 C 2333 2049 2340 2034 2340 2004 C 2340 1979 2347 1959 2361 1944 C 2373 1931 2383 1910 2383 1896 C 2383 1877 2389 1871 2415 1866 C 2450 1859 2474 1838 2484 1803 C 2494 1772 2484 1774 2455 1808 C 2442 1823 2428 1831 2424 1827 C 2420 1823 2457 1778 2508 1727 C 2595 1640 2615 1610 2588 1610 C 2582 1610 2534 1651 2483 1701 C 2432 1752 2387 1790 2383 1786 C 2380 1783 2387 1769 2400 1755 L 2423 1730 L 2402 1730 C 2373 1730 2340 1764 2340 1794 C 2340 1813 2333 1819 2305 1824 C 2279 1829 2269 1837 2264 1855 C 2259 1877 2252 1880 2213 1880 C 2175 1880 2163 1885 2134 1914 C 2115 1933 2100 1955 2100 1964 C 2100 1976 2090 1980 2062 1980 C 2025 1980 1987 1999 1963 2030 C 1952 2043 1945 2039 1910 2002 C 1873 1964 1870 1958 1884 1944 C 1929 1900 1867 1843 1820 1885 C 1805 1898 1799 1895 1760 1855 L 1716 1810 L 1759 1769 L 1803 1728 L 1781 1707 C 1763 1688 1756 1687 1730 1697 C 1698 1709 1693 1702 1710 1669 C 1722 1647 1707 1610 1687 1610 C 1680 1610 1659 1626 1640 1645 C 1601 1685 1590 1688 1565 1660 C 1542 1634 1538 1635 1506 1667 L 1479 1693 L 1505 1720 C 1519 1734 1530 1750 1530 1754 C 1530 1758 1512 1780 1489 1802 L 1448 1843 L 1468 1863 C 1485 1880 1493 1881 1519 1872 C 1553 1860 1558 1867 1539 1901 C 1531 1917 1532 1926 1546 1941 C 1555 1951 1567 1960 1571 1960 C 1576 1960 1598 1942 1622 1920 L 1664 1879 L 1704 1919 C 1736 1951 1742 1962 1732 1972 C 1715 1989 1717 2016 1736 2034 C 1755 2054 1774 2054 1793 2035 C 1806 2023 1810 2023 1826 2041 C 1844 2061 1843 2062 1812 2086 C 1774 2116 1770 2154 1800 2193 C 1811 2207 1820 2223 1820 2229 C 1820 2235 1832 2246 1846 2252 C 1868 2263 1874 2262 1886 2245 C 1905 2219 1904 2214 1870 2188 C 1837 2164 1832 2145 1856 2136 C 1887 2124 1910 2130 1944 2160 L 1978 2190 L 1911 2255 C 1874 2291 1839 2320 1833 2320 C 1827 2320 1819 2326 1816 2333 C 1813 2339 1812 2336 1815 2324 C 1819 2309 1814 2300 1795 2292 C 1781 2285 1762 2280 1753 2280 C 1744 2280 1740 2274 1743 2266 C 1750 2249 1732 2230 1708 2230 C 1698 2230 1690 2226 1690 2220 C 1690 2215 1681 2210 1670 2210 C 1659 2210 1650 2215 1650 2221 C 1650 2227 1643 2224 1634 2215 C 1624 2206 1609 2201 1599 2203 C 1588 2206 1577 2204 1574 2198 C 1571 2193 1556 2190 1542 2191 C 1527 2192 1502 2189 1487 2185 C 1439 2172 1436 2192 1478 2246 C 1515 2293 1551 2366 1564 2422 C 1571 2453 1595 2480 1615 2480 C 1639 2480 1680 2436 1686 2405 C 1689 2389 1694 2373 1697 2370 C 1700 2367 1700 2375 1697 2388 C 1693 2406 1696 2410 1716 2410 C 1729 2410 1740 2414 1740 2419 C 1740 2440 1628 2530 1567 2558 C 1493 2593 1460 2632 1460 2687 C 1460 2727 1483 2750 1522 2750 C 1574 2750 1619 2714 1651 2646 C 1676 2593 1775 2470 1794 2470 C 1797 2470 1800 2476 1800 2484 C 1800 2493 1813 2500 1833 2503 C 1861 2507 1860 2507 1828 2506 C 1807 2505 1790 2508 1790 2512 C 1790 2515 1781 2521 1771 2525 C 1750 2532 1725 2583 1733 2604 C 1736 2612 1762 2626 1791 2635 C 1876 2663 1922 2687 1965 2724 L 2005 2758 L 2013 2734 C 2019 2719 2018 2704 2011 2697 z M 2227 1551 C 2237 1560 2240 1558 2240 1546 C 2240 1524 2210 1513 2199 1531 C 2186 1551 2188 1566 2202 1552 C 2210 1544 2217 1543 2227 1551 z M 1480 1513 C 1480 1508 1483 1470 1485 1428 C 1488 1379 1486 1350 1480 1350 C 1475 1350 1470 1357 1470 1365 C 1470 1375 1460 1380 1440 1380 C 1422 1380 1407 1374 1404 1365 C 1392 1334 1378 1350 1384 1388 C 1387 1408 1393 1446 1396 1473 C 1403 1520 1403 1520 1441 1520 C 1463 1520 1480 1517 1480 1513 z M 1588 1511 C 1596 1507 1601 1492 1599 1479 C 1598 1466 1600 1445 1604 1432 C 1614 1402 1595 1380 1560 1380 C 1533 1380 1505 1401 1516 1413 C 1520 1416 1535 1416 1551 1413 C 1584 1407 1588 1416 1563 1437 C 1550 1447 1548 1453 1558 1456 C 1571 1462 1575 1490 1562 1490 C 1558 1490 1549 1485 1542 1478 C 1533 1469 1529 1471 1524 1484 C 1513 1513 1557 1531 1588 1511 z M 1730 1450 C 1730 1394 1727 1380 1715 1380 C 1706 1380 1700 1389 1700 1405 C 1700 1419 1696 1430 1692 1430 C 1687 1430 1677 1419 1670 1405 C 1663 1391 1648 1380 1637 1380 C 1619 1380 1619 1382 1633 1404 C 1646 1423 1647 1434 1638 1458 C 1622 1499 1640 1520 1691 1520 L 1730 1520 L 1730 1450 z M 1844 1504 C 1874 1474 1860 1437 1815 1428 C 1803 1426 1794 1415 1792 1402 C 1790 1390 1782 1380 1774 1380 C 1763 1380 1760 1395 1760 1443 C 1760 1478 1763 1510 1767 1513 C 1779 1526 1829 1520 1844 1504 z M 1913 1500 L 1927 1479 L 1933 1500 C 1940 1527 1960 1526 1961 1498 L 1961 1475 L 1977 1498 C 1995 1523 2020 1527 2020 1505 C 2020 1497 2016 1490 2011 1490 C 1993 1490 1989 1451 2004 1421 C 2024 1383 2024 1380 2001 1380 C 1991 1380 1979 1390 1975 1403 L 1967 1425 L 1963 1403 C 1961 1390 1952 1380 1944 1380 C 1936 1380 1930 1390 1929 1403 L 1929 1425 L 1918 1403 C 1912 1390 1899 1380 1888 1380 C 1871 1380 1870 1382 1885 1410 C 1904 1447 1904 1474 1885 1490 C 1870 1502 1873 1520 1890 1520 C 1895 1520 1905 1511 1913 1500 z M 2128 1458 C 2140 1423 2150 1392 2150 1388 C 2150 1374 2127 1380 2114 1398 C 2103 1412 2098 1413 2083 1402 C 2030 1366 2025 1372 2051 1441 C 2062 1471 2073 1501 2075 1508 C 2085 1536 2107 1516 2128 1458 z M 2204 1493 L 2218 1465 L 2229 1493 C 2235 1508 2246 1520 2255 1520 C 2267 1520 2266 1510 2247 1458 C 2225 1400 2199 1368 2185 1382 C 2181 1385 2184 1397 2191 1407 C 2200 1422 2199 1433 2186 1458 C 2168 1493 2165 1520 2180 1520 C 2185 1520 2196 1508 2204 1493 z M 2320 1495 C 2320 1477 2325 1470 2340 1470 C 2355 1470 2360 1477 2360 1496 C 2360 1512 2365 1520 2373 1518 C 2380 1515 2386 1489 2388 1447 C 2390 1393 2388 1380 2376 1380 C 2367 1380 2360 1391 2358 1407 C 2356 1424 2348 1436 2338 1438 C 2324 1441 2320 1435 2320 1411 C 2320 1390 2315 1380 2305 1380 C 2293 1380 2290 1394 2290 1450 C 2290 1506 2293 1520 2305 1520 C 2314 1520 2320 1511 2320 1495 z M 2506 1451 C 2536 1372 2531 1365 2477 1402 C 2462 1413 2457 1412 2446 1398 C 2435 1383 2410 1373 2410 1383 C 2410 1391 2449 1501 2455 1511 C 2468 1531 2483 1513 2506 1451 z M 2650 1450 C 2650 1394 2647 1380 2635 1380 C 2626 1380 2620 1389 2620 1405 C 2620 1419 2615 1430 2610 1430 C 2604 1430 2594 1419 2588 1405 C 2582 1391 2569 1380 2558 1380 C 2536 1380 2535 1389 2555 1417 C 2565 1431 2567 1441 2560 1445 C 2544 1455 2549 1498 2568 1509 C 2577 1515 2600 1520 2618 1520 L 2650 1520 L 2650 1450 z M 1671 1273 L 1682 1245 L 1692 1273 C 1698 1290 1709 1300 1721 1300 C 1738 1300 1740 1292 1740 1230 C 1740 1174 1737 1160 1725 1160 C 1717 1160 1710 1168 1710 1178 C 1709 1194 1709 1194 1699 1178 C 1685 1154 1671 1156 1660 1183 L 1651 1205 L 1651 1182 C 1650 1168 1645 1160 1638 1162 C 1630 1165 1624 1191 1622 1233 C 1619 1295 1621 1300 1640 1300 C 1653 1300 1664 1290 1671 1273 z M 1800 1275 C 1800 1255 1805 1250 1824 1250 C 1838 1250 1856 1243 1864 1234 C 1879 1220 1880 1222 1880 1259 C 1880 1289 1884 1300 1895 1300 C 1907 1300 1910 1286 1910 1230 C 1910 1174 1907 1160 1895 1160 C 1887 1160 1880 1167 1880 1177 C 1880 1192 1878 1192 1861 1176 C 1849 1165 1830 1160 1808 1162 L 1775 1165 L 1772 1233 C 1770 1288 1772 1300 1785 1300 C 1794 1300 1800 1291 1800 1275 z M 2030 1285 C 2030 1277 2023 1270 2015 1270 C 2003 1270 2000 1257 2000 1215 C 2000 1173 1997 1160 1985 1160 C 1974 1160 1970 1173 1970 1214 C 1970 1259 1967 1268 1950 1273 C 1911 1283 1930 1300 1980 1300 C 2018 1300 2030 1296 2030 1285 z M 2088 1272 C 2093 1241 2120 1244 2120 1275 C 2120 1294 2125 1300 2140 1300 C 2159 1300 2161 1295 2158 1233 C 2156 1180 2152 1165 2140 1165 C 2131 1165 2124 1176 2122 1193 C 2118 1228 2092 1228 2088 1193 C 2086 1179 2079 1165 2073 1162 C 2063 1159 2060 1177 2060 1230 C 2060 1283 2063 1301 2073 1298 C 2079 1295 2086 1284 2088 1272 z M 2276 1233 C 2291 1191 2295 1168 2288 1163 C 2282 1160 2272 1164 2265 1173 C 2250 1194 2210 1195 2210 1175 C 2210 1167 2203 1160 2195 1160 C 2176 1160 2176 1164 2201 1239 C 2228 1318 2245 1317 2276 1233 z M 2418 1233 C 2416 1191 2410 1165 2403 1162 C 2395 1160 2390 1168 2390 1184 C 2390 1217 2375 1217 2354 1185 C 2345 1171 2331 1160 2324 1160 C 2307 1160 2307 1165 2321 1192 C 2328 1206 2329 1220 2322 1234 C 2317 1246 2316 1265 2321 1278 C 2328 1296 2337 1300 2375 1300 L 2421 1300 L 2418 1233 z M 1728 1078 C 1745 1061 1743 1040 1725 1040 C 1717 1040 1710 1045 1710 1050 C 1710 1062 1688 1059 1678 1045 C 1654 1013 1686 962 1713 989 C 1730 1006 1740 1002 1740 980 C 1740 938 1662 934 1646 975 C 1620 1044 1683 1123 1728 1078 z M 1861 1073 C 1863 1035 1858 955 1854 950 C 1843 940 1830 977 1830 1018 C 1830 1041 1826 1060 1820 1060 C 1815 1060 1810 1045 1810 1028 C 1810 976 1799 950 1779 950 C 1759 950 1753 965 1770 975 C 1776 978 1780 1006 1780 1036 L 1780 1090 L 1820 1090 C 1851 1090 1860 1086 1861 1073 z M 1925 1062 C 1938 1034 1944 1034 1958 1065 C 1969 1089 1990 1100 1990 1081 C 1990 1067 1947 966 1936 953 C 1929 945 1920 944 1910 950 C 1897 958 1897 961 1912 972 C 1928 984 1928 988 1910 1029 C 1899 1053 1890 1077 1890 1082 C 1890 1099 1915 1085 1925 1062 z M 2053 1058 C 2056 1051 2059 1055 2059 1068 C 2060 1097 2090 1098 2090 1068 L 2090 1046 L 2110 1068 C 2134 1094 2150 1096 2150 1075 C 2150 1067 2146 1060 2141 1060 C 2123 1060 2119 1021 2134 991 C 2154 954 2154 950 2135 950 C 2127 950 2114 962 2106 978 L 2091 1005 L 2090 978 C 2090 947 2060 937 2060 968 C 2059 984 2059 984 2046 968 C 2039 958 2025 950 2016 950 C 2001 950 2001 953 2015 980 C 2035 1018 2034 1047 2014 1058 C 1990 1071 2006 1093 2030 1080 C 2040 1075 2051 1065 2053 1058 z M 2263 1076 C 2267 1065 2260 1060 2237 1058 C 2197 1054 2196 1037 2236 1030 C 2262 1025 2265 1021 2265 990 C 2265 955 2265 955 2218 952 L 2170 949 L 2170 1013 C 2170 1048 2173 1080 2177 1083 C 2190 1096 2258 1090 2263 1076 z M 2379 1034 C 2390 1003 2400 972 2400 964 C 2400 945 2374 946 2366 965 C 2358 987 2333 983 2319 959 C 2312 945 2305 941 2298 948 C 2285 961 2327 1090 2344 1090 C 2351 1090 2367 1065 2379 1034 z" stroke-linecap="round"/>
</g>
<g transform="matrix(0.3381 0 0 -0.3381 318.5677 153.1058)" id="553098">
<path style="stroke: none; stroke-width: 1; stroke-dasharray: none; stroke-linecap: butt; stroke-dashoffset: 0; stroke-linejoin: miter; stroke-miterlimit: 4; is-custom-font: none; font-file-url: none; fill: rgb(248,193,65); fill-rule: nonzero; opacity: 1;" vector-effect="non-scaling-stroke" transform=" translate(-1504.289, -2924.0877)" d="M 1490 2926 C 1490 2900 1494 2890 1506 2890 C 1517 2890 1520 2898 1518 2922 C 1514 2968 1490 2971 1490 2926 z" stroke-linecap="round"/>
</g>
<g transform="matrix(0.3381 0 0 -0.3381 533.6794 119.6573)" id="534363">
<path style="stroke: none; stroke-width: 1; stroke-dasharray: none; stroke-linecap: butt; stroke-dashoffset: 0; stroke-linejoin: miter; stroke-miterlimit: 4; is-custom-font: none; font-file-url: none; fill: rgb(248,193,65); fill-rule: nonzero; opacity: 1;" vector-effect="non-scaling-stroke" transform=" translate(-2124.6775, -3020.5341)" d="M 2116 3044 C 2104 3013 2109 2980 2125 2986 C 2133 2990 2140 3005 2140 3020 C 2140 3053 2125 3068 2116 3044 z" stroke-linecap="round"/>
</g>
<g transform="matrix(0.3381 0 0 -0.3381 471.1842 139.0616)" id="189463">
<path style="stroke: none; stroke-width: 1; stroke-dasharray: none; stroke-linecap: butt; stroke-dashoffset: 0; stroke-linejoin: miter; stroke-miterlimit: 4; is-custom-font: none; font-file-url: none; fill: rgb(248,193,65); fill-rule: nonzero; opacity: 1;" vector-effect="non-scaling-stroke" transform=" translate(-1944.4236, -2964.5671)" d="M 1935 2977 C 1927 2956 1922 2935 1925 2929 C 1942 2903 1976 2971 1961 2998 C 1953 3012 1949 3009 1935 2977 z" stroke-linecap="round"/>
</g>
<g transform="matrix(0.3381 0 0 -0.3381 696.5421 153.1058)" id="511242">
<path style="stroke: none; stroke-width: 1; stroke-dasharray: none; stroke-linecap: butt; stroke-dashoffset: 0; stroke-linejoin: miter; stroke-miterlimit: 4; is-custom-font: none; font-file-url: none; fill: rgb(248,193,65); fill-rule: nonzero; opacity: 1;" vector-effect="non-scaling-stroke" transform=" translate(-2594.289, -2924.0877)" d="M 2580 2926 C 2580 2900 2584 2890 2596 2890 C 2607 2890 2610 2898 2608 2922 C 2604 2968 2580 2971 2580 2926 z" stroke-linecap="round"/>
</g>
<g transform="matrix(0.3381 0 0 -0.3381 675.9702 232.5336)" id="40931">
<path style="stroke: none; stroke-width: 1; stroke-dasharray: none; stroke-linecap: butt; stroke-dashoffset: 0; stroke-linejoin: miter; stroke-miterlimit: 4; is-custom-font: none; font-file-url: none; fill: rgb(248,193,65); fill-rule: nonzero; opacity: 1;" vector-effect="non-scaling-stroke" transform=" translate(-2535, -2695)" d="M 2521 2706 C 2512 2696 2513 2690 2524 2681 C 2534 2672 2540 2673 2549 2684 C 2558 2694 2557 2700 2546 2709 C 2536 2718 2530 2717 2521 2706 z" stroke-linecap="round"/>
</g>
<g transform="matrix(0.3381 0 0 -0.3381 458.7767 249.4125)" id="30650">
<path style="stroke: none; stroke-width: 1; stroke-dasharray: none; stroke-linecap: butt; stroke-dashoffset: 0; stroke-linejoin: miter; stroke-miterlimit: 4; is-custom-font: none; font-file-url: none; fill: rgb(248,193,65); fill-rule: nonzero; opacity: 1;" vector-effect="non-scaling-stroke" transform=" translate(-1908.6582, -2646.3207)" d="M 1905 2649 C 1901 2643 1900 2637 1903 2634 C 1905 2631 1910 2636 1913 2645 C 1920 2662 1914 2665 1905 2649 z" stroke-linecap="round"/>
</g>
<g transform="matrix(0.3381 0 0 -0.3381 627.8541 283.0943)" id="823439">
<path style="stroke: none; stroke-width: 1; stroke-dasharray: none; stroke-linecap: butt; stroke-dashoffset: 0; stroke-linejoin: miter; stroke-miterlimit: 4; is-custom-font: none; font-file-url: none; fill: rgb(248,193,65); fill-rule: nonzero; opacity: 1;" vector-effect="non-scaling-stroke" transform=" translate(-2396.2073, -2549.2154)" d="M 2312 2638 C 2282 2608 2304 2548 2350 2532 C 2366 2526 2380 2514 2380 2506 C 2380 2484 2420 2450 2446 2450 C 2503 2450 2512 2529 2459 2559 C 2443 2568 2427 2583 2424 2592 C 2410 2636 2339 2665 2312 2638 z" stroke-linecap="round"/>
</g>
<g transform="matrix(0.3381 0 0 -0.3381 423.1203 268.2436)" id="828219">
<path style="stroke: none; stroke-width: 1; stroke-dasharray: none; stroke-linecap: butt; stroke-dashoffset: 0; stroke-linejoin: miter; stroke-miterlimit: 4; is-custom-font: none; font-file-url: none; fill: rgb(248,193,65); fill-rule: nonzero; opacity: 1;" vector-effect="non-scaling-stroke" transform=" translate(-1805.8301, -2592.0566)" d="M 1797 2606 C 1780 2581 1784 2574 1820 2556 C 1828 2552 1824 2558 1810 2570 L 1785 2591 L 1810 2585 C 1828 2581 1831 2582 1821 2588 C 1813 2594 1810 2605 1813 2614 C 1822 2637 1815 2634 1797 2606 z" stroke-linecap="round"/>
</g>
<g transform="matrix(0.3381 0 0 -0.3381 458.6228 262.0266)" id="802270">
<path style="stroke: none; stroke-width: 1; stroke-dasharray: none; stroke-linecap: butt; stroke-dashoffset: 0; stroke-linejoin: miter; stroke-miterlimit: 4; is-custom-font: none; font-file-url: none; fill: rgb(248,193,65); fill-rule: nonzero; opacity: 1;" vector-effect="non-scaling-stroke" transform=" translate(-1908.2048, -2610)" d="M 1900 2610 C 1900 2605 1905 2600 1911 2600 C 1916 2600 1918 2605 1915 2610 C 1912 2616 1907 2620 1904 2620 C 1902 2620 1900 2616 1900 2610 z" stroke-linecap="round"/>
</g>
<g transform="matrix(0.3381 0 0 -0.3381 436.0195 264.6799)" id="653951">
<path style="stroke: none; stroke-width: 1; stroke-dasharray: none; stroke-linecap: butt; stroke-dashoffset: 0; stroke-linejoin: miter; stroke-miterlimit: 4; is-custom-font: none; font-file-url: none; fill: rgb(248,193,65); fill-rule: nonzero; opacity: 1;" vector-effect="non-scaling-stroke" transform=" translate(-1842.998, -2602.3088)" d="M 1830 2606 C 1830 2604 1837 2599 1846 2596 C 1854 2593 1858 2594 1855 2600 C 1849 2610 1830 2614 1830 2606 z" stroke-linecap="round"/>
</g>
<g transform="matrix(0.3381 0 0 -0.3381 456.8274 280.9875)" id="39892">
<path style="stroke: none; stroke-width: 1; stroke-dasharray: none; stroke-linecap: butt; stroke-dashoffset: 0; stroke-linejoin: miter; stroke-miterlimit: 4; is-custom-font: none; font-file-url: none; fill: rgb(248,193,65); fill-rule: nonzero; opacity: 1;" vector-effect="non-scaling-stroke" transform=" translate(-1903.0024, -2555.3267)" d="M 1893 2561 C 1880 2540 1885 2530 1909 2531 C 1921 2531 1920 2534 1905 2540 C 1887 2547 1886 2548 1903 2555 C 1912 2559 1920 2566 1920 2571 C 1920 2586 1905 2581 1893 2561 z" stroke-linecap="round"/>
</g>
<g transform="matrix(0.3381 0 0 -0.3381 433.8107 288.1127)" id="961266">
<path style="stroke: none; stroke-width: 1; stroke-dasharray: none; stroke-linecap: butt; stroke-dashoffset: 0; stroke-linejoin: miter; stroke-miterlimit: 4; is-custom-font: none; font-file-url: none; fill: rgb(248,193,65); fill-rule: nonzero; opacity: 1;" vector-effect="non-scaling-stroke" transform=" translate(-1836.6132, -2534.75)" d="M 1823 2533 C 1832 2531 1846 2531 1853 2533 C 1859 2536 1852 2538 1835 2538 C 1819 2538 1813 2536 1823 2533 z" stroke-linecap="round"/>
</g>
<g transform="matrix(0.3381 0 0 -0.3381 454.0438 295.8907)" id="737320">
<path style="stroke: none; stroke-width: 1; stroke-dasharray: none; stroke-linecap: butt; stroke-dashoffset: 0; stroke-linejoin: miter; stroke-miterlimit: 4; is-custom-font: none; font-file-url: none; fill: rgb(248,193,65); fill-rule: nonzero; opacity: 1;" vector-effect="non-scaling-stroke" transform=" translate(-1895, -2512.2952)" d="M 1880 2510 C 1880 2505 1887 2503 1895 2506 C 1903 2510 1910 2514 1910 2516 C 1910 2518 1903 2520 1895 2520 C 1887 2520 1880 2516 1880 2510 z" stroke-linecap="round"/>
</g>
<g transform="matrix(0.3381 0 0 -0.3381 468.2187 301.8181)" id="989391">
<path style="stroke: none; stroke-width: 1; stroke-dasharray: none; stroke-linecap: butt; stroke-dashoffset: 0; stroke-linejoin: miter; stroke-miterlimit: 4; is-custom-font: none; font-file-url: none; fill: rgb(248,193,65); fill-rule: nonzero; opacity: 1;" vector-effect="non-scaling-stroke" transform=" translate(-1935.8618, -2495.1924)" d="M 1928 2493 C 1935 2490 1944 2491 1947 2494 C 1951 2497 1945 2500 1934 2499 C 1923 2499 1920 2496 1928 2493 z" stroke-linecap="round"/>
</g>
<g transform="matrix(0.3381 0 0 -0.3381 369.1788 340.9355)" id="291665">
<path style="stroke: none; stroke-width: 1; stroke-dasharray: none; stroke-linecap: butt; stroke-dashoffset: 0; stroke-linejoin: miter; stroke-miterlimit: 4; is-custom-font: none; font-file-url: none; fill: rgb(248,193,65); fill-rule: nonzero; opacity: 1;" vector-effect="non-scaling-stroke" transform=" translate(-1650.2375, -2382.448)" d="M 1648 2413 C 1629 2408 1626 2387 1641 2355 C 1648 2340 1649 2343 1644 2368 C 1641 2387 1643 2400 1649 2400 C 1654 2400 1661 2388 1663 2373 C 1666 2350 1667 2352 1669 2383 C 1669 2403 1669 2419 1668 2419 C 1666 2418 1657 2416 1648 2413 z" stroke-linecap="round"/>
</g>
<g transform="matrix(0.3381 0 0 -0.3381 391.7026 342.9365)" id="935035">
<path style="stroke: none; stroke-width: 1; stroke-dasharray: none; stroke-linecap: butt; stroke-dashoffset: 0; stroke-linejoin: miter; stroke-miterlimit: 4; is-custom-font: none; font-file-url: none; fill: rgb(248,193,65); fill-rule: nonzero; opacity: 1;" vector-effect="non-scaling-stroke" transform=" translate(-1715.25, -2376.6132)" d="M 1712 2375 C 1712 2359 1714 2353 1717 2363 C 1719 2372 1719 2386 1717 2393 C 1714 2399 1712 2392 1712 2375 z" stroke-linecap="round"/>
</g>
<g transform="matrix(0.3381 0 0 -0.3381 410.4027 348.8423)" id="494450">
<path style="stroke: none; stroke-width: 1; stroke-dasharray: none; stroke-linecap: butt; stroke-dashoffset: 0; stroke-linejoin: miter; stroke-miterlimit: 4; is-custom-font: none; font-file-url: none; fill: rgb(248,193,65); fill-rule: nonzero; opacity: 1;" vector-effect="non-scaling-stroke" transform=" translate(-1769.1613, -2359.597)" d="M 1755 2392 C 1749 2388 1744 2370 1743 2352 C 1742 2320 1742 2319 1757 2339 C 1765 2351 1768 2366 1764 2373 C 1759 2381 1762 2380 1773 2371 C 1797 2352 1805 2363 1782 2383 C 1773 2392 1760 2396 1755 2392 z" stroke-linecap="round"/>
</g>
<g transform="matrix(0.3381 0 0 -0.3381 346.5783 356.6166)" id="928284">
<path style="stroke: none; stroke-width: 1; stroke-dasharray: none; stroke-linecap: butt; stroke-dashoffset: 0; stroke-linejoin: miter; stroke-miterlimit: 4; is-custom-font: none; font-file-url: none; fill: rgb(248,193,65); fill-rule: nonzero; opacity: 1;" vector-effect="non-scaling-stroke" transform=" translate(-1585.1288, -2337.2033)" d="M 1577 2336 C 1573 2326 1576 2323 1585 2327 C 1593 2330 1597 2336 1594 2341 C 1587 2353 1583 2352 1577 2336 z" stroke-linecap="round"/>
</g>
<g transform="matrix(0.3381 0 0 -0.3381 393.8346 368.6588)" id="681864">
<path style="stroke: none; stroke-width: 1; stroke-dasharray: none; stroke-linecap: butt; stroke-dashoffset: 0; stroke-linejoin: miter; stroke-miterlimit: 4; is-custom-font: none; font-file-url: none; fill: rgb(248,193,65); fill-rule: nonzero; opacity: 1;" vector-effect="non-scaling-stroke" transform=" translate(-1721.358, -2302.4617)" d="M 1715 2321 C 1712 2311 1714 2292 1719 2279 C 1728 2258 1729 2260 1729 2298 C 1730 2343 1725 2352 1715 2321 z" stroke-linecap="round"/>
</g>
<g transform="matrix(0.3381 0 0 -0.3381 370.949 370.0624)" id="232762">
<path style="stroke: none; stroke-width: 1; stroke-dasharray: none; stroke-linecap: butt; stroke-dashoffset: 0; stroke-linejoin: miter; stroke-miterlimit: 4; is-custom-font: none; font-file-url: none; fill: rgb(248,193,65); fill-rule: nonzero; opacity: 1;" vector-effect="non-scaling-stroke" transform=" translate(-1655.3526, -2298.4045)" d="M 1644 2309 C 1640 2302 1641 2300 1648 2304 C 1654 2307 1661 2302 1663 2293 C 1667 2277 1668 2277 1669 2292 C 1670 2313 1654 2324 1644 2309 z" stroke-linecap="round"/>
</g>
<g transform="matrix(0.3381 0 0 -0.3381 348.8918 372.9768)" id="647561">
<path style="stroke: none; stroke-width: 1; stroke-dasharray: none; stroke-linecap: butt; stroke-dashoffset: 0; stroke-linejoin: miter; stroke-miterlimit: 4; is-custom-font: none; font-file-url: none; fill: rgb(248,193,65); fill-rule: nonzero; opacity: 1;" vector-effect="non-scaling-stroke" transform=" translate(-1591.7952, -2290)" d="M 1585 2290 C 1588 2285 1593 2280 1596 2280 C 1598 2280 1600 2285 1600 2290 C 1600 2296 1595 2300 1589 2300 C 1584 2300 1582 2296 1585 2290 z" stroke-linecap="round"/>
</g>
<g transform="matrix(0.3381 0 0 -0.3381 362.1575 374.7194)" id="484811">
<path style="stroke: none; stroke-width: 1; stroke-dasharray: none; stroke-linecap: butt; stroke-dashoffset: 0; stroke-linejoin: miter; stroke-miterlimit: 4; is-custom-font: none; font-file-url: none; fill: rgb(248,193,65); fill-rule: nonzero; opacity: 1;" vector-effect="non-scaling-stroke" transform=" translate(-1630, -2285)" d="M 1620 2291 C 1620 2286 1625 2278 1630 2275 C 1636 2272 1640 2273 1640 2279 C 1640 2284 1636 2292 1630 2295 C 1625 2298 1620 2297 1620 2291 z" stroke-linecap="round"/>
</g>
<g transform="matrix(0.3381 0 0 -0.3381 532.0692 422.3405)" id="575440">
<path style="stroke: none; stroke-width: 1; stroke-dasharray: none; stroke-linecap: butt; stroke-dashoffset: 0; stroke-linejoin: miter; stroke-miterlimit: 4; is-custom-font: none; font-file-url: none; fill: rgb(248,193,65); fill-rule: nonzero; opacity: 1;" vector-effect="non-scaling-stroke" transform=" translate(-2119.9744, -2147.6884)" d="M 2080 2180 C 2080 2164 2141 2100 2151 2106 C 2165 2114 2162 2160 2146 2176 C 2130 2192 2080 2195 2080 2180 z" stroke-linecap="round"/>
</g>
<g transform="matrix(0.3381 0 0 -0.3381 512.3781 441.4037)" id="507518">
<path style="stroke: none; stroke-width: 1; stroke-dasharray: none; stroke-linecap: butt; stroke-dashoffset: 0; stroke-linejoin: miter; stroke-miterlimit: 4; is-custom-font: none; font-file-url: none; fill: rgb(248,193,65); fill-rule: nonzero; opacity: 1;" vector-effect="non-scaling-stroke" transform=" translate(-2063.2355, -2092.6802)" d="M 2027 2119 C 2016 2077 2059 2037 2095 2057 C 2107 2064 2103 2073 2071 2104 C 2034 2140 2032 2141 2027 2119 z" stroke-linecap="round"/>
</g>
<g transform="matrix(0.3381 0 0 -0.3381 576.1769 473.5497)" id="172792">
<path style="stroke: none; stroke-width: 1; stroke-dasharray: none; stroke-linecap: butt; stroke-dashoffset: 0; stroke-linejoin: miter; stroke-miterlimit: 4; is-custom-font: none; font-file-url: none; fill: rgb(248,193,65); fill-rule: nonzero; opacity: 1;" vector-effect="non-scaling-stroke" transform=" translate(-2247.1687, -2000)" d="M 2245 2000 C 2266 1978 2284 1960 2285 1960 C 2285 1960 2287 1972 2288 1986 C 2291 2022 2274 2040 2237 2040 L 2206 2040 L 2245 2000 z" stroke-linecap="round"/>
</g>
<g transform="matrix(0.3381 0 0 -0.3381 559.1936 484.6815)" id="682820">
<path style="stroke: none; stroke-width: 1; stroke-dasharray: none; stroke-linecap: butt; stroke-dashoffset: 0; stroke-linejoin: miter; stroke-miterlimit: 4; is-custom-font: none; font-file-url: none; fill: rgb(248,193,65); fill-rule: nonzero; opacity: 1;" vector-effect="non-scaling-stroke" transform=" translate(-2198.1883, -1967.8789)" d="M 2170 1977 C 2170 1957 2177 1946 2195 1938 C 2234 1920 2237 1937 2202 1973 L 2170 2005 L 2170 1977 z" stroke-linecap="round"/>
</g>
<g transform="matrix(0.3381 0 0 -0.3381 355.3431 522.1067)" id="568172">
<path style="stroke: none; stroke-width: 1; stroke-dasharray: none; stroke-linecap: butt; stroke-dashoffset: 0; stroke-linejoin: miter; stroke-miterlimit: 4; is-custom-font: none; font-file-url: none; fill: rgb(248,193,65); fill-rule: nonzero; opacity: 1;" vector-effect="non-scaling-stroke" transform=" translate(-1610.3393, -1860)" d="M 1597 1860 C 1600 1849 1609 1840 1618 1840 C 1631 1840 1630 1843 1615 1860 C 1605 1871 1596 1880 1594 1880 C 1593 1880 1594 1871 1597 1860 z" stroke-linecap="round"/>
</g>
<g transform="matrix(0.3381 0 0 -0.3381 337.866 541.1706)" id="588938">
<path style="stroke: none; stroke-width: 1; stroke-dasharray: none; stroke-linecap: butt; stroke-dashoffset: 0; stroke-linejoin: miter; stroke-miterlimit: 4; is-custom-font: none; font-file-url: none; fill: rgb(248,193,65); fill-rule: nonzero; opacity: 1;" vector-effect="non-scaling-stroke" transform=" translate(-1560, -1805)" d="M 1550 1805 C 1557 1797 1567 1790 1572 1790 C 1578 1790 1577 1797 1570 1805 C 1563 1813 1553 1820 1548 1820 C 1542 1820 1543 1813 1550 1805 z" stroke-linecap="round"/>
</g>
<g transform="matrix(0.3381 0 0 -0.3381 383.2761 555.5256)" id="385088">
<path style="stroke: none; stroke-width: 1; stroke-dasharray: none; stroke-linecap: butt; stroke-dashoffset: 0; stroke-linejoin: miter; stroke-miterlimit: 4; is-custom-font: none; font-file-url: none; fill: rgb(248,193,65); fill-rule: nonzero; opacity: 1;" vector-effect="non-scaling-stroke" transform=" translate(-1690.9504, -1763.5641)" d="M 1676 1772 C 1673 1766 1677 1759 1686 1756 C 1709 1747 1714 1754 1696 1769 C 1688 1776 1679 1777 1676 1772 z" stroke-linecap="round"/>
</g>
<g transform="matrix(0.3381 0 0 -0.3381 367.2278 573.7842)" id="427607">
<path style="stroke: none; stroke-width: 1; stroke-dasharray: none; stroke-linecap: butt; stroke-dashoffset: 0; stroke-linejoin: miter; stroke-miterlimit: 4; is-custom-font: none; font-file-url: none; fill: rgb(248,193,65); fill-rule: nonzero; opacity: 1;" vector-effect="non-scaling-stroke" transform=" translate(-1644.6664, -1710.9314)" d="M 1630 1721 C 1630 1716 1637 1707 1645 1700 C 1661 1686 1663 1690 1654 1714 C 1648 1731 1630 1736 1630 1721 z" stroke-linecap="round"/>
</g>
<g transform="matrix(0.3381 0 0 -0.3381 295.5778 666.0873)" id="681434">
<path style="stroke: none; stroke-width: 1; stroke-dasharray: none; stroke-linecap: butt; stroke-dashoffset: 0; stroke-linejoin: miter; stroke-miterlimit: 4; is-custom-font: none; font-file-url: none; fill: rgb(248,193,65); fill-rule: nonzero; opacity: 1;" vector-effect="non-scaling-stroke" transform=" translate(-1438.0223, -1444.7893)" d="M 1430 1468 C 1430 1461 1427 1445 1424 1433 C 1419 1416 1422 1410 1433 1410 C 1450 1410 1459 1434 1452 1463 C 1447 1482 1430 1486 1430 1468 z" stroke-linecap="round"/>
</g>
<g transform="matrix(0.3381 0 0 -0.3381 380.2575 655.8931)" id="806643">
<path style="stroke: none; stroke-width: 1; stroke-dasharray: none; stroke-linecap: butt; stroke-dashoffset: 0; stroke-linejoin: miter; stroke-miterlimit: 4; is-custom-font: none; font-file-url: none; fill: rgb(248,193,65); fill-rule: nonzero; opacity: 1;" vector-effect="non-scaling-stroke" transform=" translate(-1682.2555, -1474.1965)" d="M 1672 1483 C 1657 1477 1666 1460 1686 1460 C 1694 1460 1700 1467 1700 1475 C 1700 1490 1694 1492 1672 1483 z" stroke-linecap="round"/>
</g>
<g transform="matrix(0.3381 0 0 -0.3381 423.7457 656.3073)" id="797173">
<path style="stroke: none; stroke-width: 1; stroke-dasharray: none; stroke-linecap: butt; stroke-dashoffset: 0; stroke-linejoin: miter; stroke-miterlimit: 4; is-custom-font: none; font-file-url: none; fill: rgb(248,193,65); fill-rule: nonzero; opacity: 1;" vector-effect="non-scaling-stroke" transform=" translate(-1807.5939, -1473.0123)" d="M 1796 1483 C 1785 1472 1790 1460 1804 1460 C 1812 1460 1821 1464 1824 1469 C 1831 1479 1805 1492 1796 1483 z" stroke-linecap="round"/>
</g>
<g transform="matrix(0.3381 0 0 -0.3381 698.3382 655.1881)" id="591619">
<path style="stroke: none; stroke-width: 1; stroke-dasharray: none; stroke-linecap: butt; stroke-dashoffset: 0; stroke-linejoin: miter; stroke-miterlimit: 4; is-custom-font: none; font-file-url: none; fill: rgb(248,193,65); fill-rule: nonzero; opacity: 1;" vector-effect="non-scaling-stroke" transform=" translate(-2599.4534, -1476.2048)" d="M 2585 1481 C 2578 1469 2597 1457 2610 1465 C 2621 1472 2614 1490 2600 1490 C 2595 1490 2589 1486 2585 1481 z" stroke-linecap="round"/>
</g>
<g transform="matrix(0.3381 0 0 -0.3381 428.322 748.8964)" id="195330">
<path style="stroke: none; stroke-width: 1; stroke-dasharray: none; stroke-linecap: butt; stroke-dashoffset: 0; stroke-linejoin: miter; stroke-miterlimit: 4; is-custom-font: none; font-file-url: none; fill: rgb(248,193,65); fill-rule: nonzero; opacity: 1;" vector-effect="non-scaling-stroke" transform=" translate(-1820.8305, -1206.0007)" d="M 1802 1208 C 1809 1189 1840 1186 1840 1204 C 1840 1214 1831 1220 1819 1220 C 1807 1220 1800 1215 1802 1208 z" stroke-linecap="round"/>
</g>
<g transform="matrix(0.3381 0 0 -0.3381 618.026 730.1709)" id="235840">
<path style="stroke: none; stroke-width: 1; stroke-dasharray: none; stroke-linecap: butt; stroke-dashoffset: 0; stroke-linejoin: miter; stroke-miterlimit: 4; is-custom-font: none; font-file-url: none; fill: rgb(248,193,65); fill-rule: nonzero; opacity: 1;" vector-effect="non-scaling-stroke" transform=" translate(-2367.8848, -1260)" d="M 2350 1260 C 2350 1255 2359 1250 2371 1250 C 2382 1250 2388 1255 2385 1260 C 2382 1266 2372 1270 2364 1270 C 2356 1270 2350 1266 2350 1260 z" stroke-linecap="round"/>
</g>
<g transform="matrix(0.3381 0 0 -0.3381 567.4891 823.7997)" id="153991">
<path style="stroke: none; stroke-width: 1; stroke-dasharray: none; stroke-linecap: butt; stroke-dashoffset: 0; stroke-linejoin: miter; stroke-miterlimit: 4; is-custom-font: none; font-file-url: none; fill: rgb(248,193,65); fill-rule: nonzero; opacity: 1;" vector-effect="non-scaling-stroke" transform=" translate(-2222.1152, -990)" d="M 2205 990 C 2202 985 2208 980 2219 980 C 2231 980 2240 985 2240 990 C 2240 996 2234 1000 2226 1000 C 2218 1000 2208 996 2205 990 z" stroke-linecap="round"/>
</g>
</svg>