<svg xmlns="http://www.w3.org/2000/svg" xmlns:xlink="http://www.w3.org/1999/xlink" version="1.1" width="1000" height="1000" viewBox="0 0 1000 1000" xml:space="preserve">
<desc>Created with Fabric.js 3.5.0</desc>
<defs>
</defs>
<rect x="0" y="0" width="100%" height="100%" fill="#fbc700"/>
<g transform="matrix(1.8938 0 0 1.8938 502.0013 502.0013)" id="201777">
<g style="" vector-effect="non-scaling-stroke">
		<g transform="matrix(0.1333 0 0 -0.1333 -0.0666 -0.0666)">
<path style="stroke: none; stroke-width: 1; stroke-dasharray: none; stroke-linecap: butt; stroke-dashoffset: 0; stroke-linejoin: miter; stroke-miterlimit: 4; is-custom-font: none; font-file-url: none; fill: rgb(38,102,85); fill-rule: nonzero; opacity: 1;" transform=" translate(-2000, -2000)" d="M 0 2000 l 0 -2000 l 2000 0 l 2000 0 l 0 2000 l 0 2000 l -2000 0 l -2000 0 l 0 -2000 z m 2787 1301 c 24 -190 123 -291 304 -309 l 74 -7 l 3 -625 l 2 -624 l -31 -96 c -37 -113 -130 -310 -190 -400 c -110 -167 -271 -330 -494 -497 c -100 -75 -423 -293 -434 -293 c -11 0 -350 231 -459 313 c -259 195 -426 382 -549 617 c -43 80 -113 256 -132 330 c -8 33 -11 215 -9 660 l 3 615 l 77 7 c 114 10 204 61 251 140 c 31 53 57 150 57 212 l 0 46 l 758 0 l 758 0 l 11 -89 z" stroke-linecap="round"/>
</g>
		<g transform="matrix(0.1333 0 0 -0.1333 3.6299 10.1191)">
<path style="stroke: none; stroke-width: 1; stroke-dasharray: none; stroke-linecap: butt; stroke-dashoffset: 0; stroke-linejoin: miter; stroke-miterlimit: 4; is-custom-font: none; font-file-url: none; fill: rgb(38,102,85); fill-rule: nonzero; opacity: 1;" transform=" translate(-2027.5, -1923.75)" d="M 1314 3342 c -6 -4 -14 -34 -18 -67 c -7 -65 -42 -149 -83 -203 c -48 -63 -137 -108 -243 -121 l -45 -6 l 0 -625 l 0 -625 l 38 -100 c 22 -55 67 -151 100 -213 c 158 -290 349 -475 806 -781 l 153 -103 l 167 113 c 353 239 533 395 674 584 c 77 103 191 325 236 461 l 31 91 l 0 596 l 0 597 l -22 4 c -13 3 -41 8 -62 11 c -161 26 -271 142 -298 311 c -5 38 -15 72 -22 76 c -14 10 -1397 10 -1412 0 z m 1386 -117 c 0 -46 34 -146 66 -194 c 50 -77 141 -130 247 -146 l 47 -7 l 0 -568 l 0 -568 l -36 -103 c -102 -294 -259 -509 -534 -730 c -73 -59 -126 -96 -312 -222 l -156 -106 l -177 120 c -237 160 -322 226 -439 339 c -197 190 -314 375 -400 632 l -26 77 l 0 564 l 0 564 l 67 12 c 164 30 267 132 293 292 c 5 35 10 67 10 72 c 0 4 304 7 675 7 l 675 0 l 0 -35 z" stroke-linecap="round"/>
</g>
		<g transform="matrix(0.1333 0 0 -0.1333 3.2995 9.4896)">
<path style="stroke: none; stroke-width: 1; stroke-dasharray: none; stroke-linecap: butt; stroke-dashoffset: 0; stroke-linejoin: miter; stroke-miterlimit: 4; is-custom-font: none; font-file-url: none; fill: rgb(38,102,85); fill-rule: nonzero; opacity: 1;" transform=" translate(-2025, -1928.5)" d="M 1375 3213 c -47 -230 -123 -310 -337 -357 l -28 -6 l 0 -551 l 0 -551 l 26 -76 c 72 -209 186 -398 334 -555 c 125 -132 234 -217 558 -437 l 94 -63 l 146 99 c 386 260 560 422 696 647 c 58 97 89 163 137 300 l 39 108 l 0 533 c 0 415 -3 536 -12 543 c -7 6 -30 13 -51 16 c -55 9 -139 50 -184 90 c -51 47 -89 118 -111 209 l -18 73 l -642 3 l -642 2 l -5 -27 z m 177 -173 c -4 -30 -22 -43 -22 -15 c 0 8 -9 19 -20 25 c -18 10 -20 8 -20 -23 c 0 -39 15 -57 48 -57 c 21 0 23 -3 20 -47 l -3 -48 l -49 -3 c -60 -4 -84 4 -68 20 c 17 17 16 167 0 170 c -7 1 14 4 47 7 c 33 4 63 5 66 4 c 3 -1 4 -16 1 -33 z m 161 8 c 24 -29 21 -35 -13 -30 c -16 2 -28 8 -25 12 c 3 4 -2 14 -11 21 c -14 11 -18 10 -30 -6 c -21 -29 -18 -48 7 -42 c 27 7 47 -1 60 -24 c 8 -17 6 -19 -21 -19 c -21 0 -30 5 -30 16 c 0 9 -6 14 -12 11 c -7 -2 -12 -13 -11 -23 c 1 -10 3 -34 5 -51 c 1 -18 4 -33 7 -33 c 13 0 39 34 34 46 c -4 10 3 14 26 14 c 17 0 31 -4 31 -9 c 0 -20 -54 -61 -80 -61 c -23 0 -32 8 -49 43 c -23 47 -27 97 -10 128 c 22 42 89 46 122 7 z m 283 16 c -3 -9 -2 -32 4 -53 c 5 -20 14 -55 20 -78 c 8 -32 16 -43 30 -43 c 18 0 20 7 20 73 c 0 61 4 77 20 92 c 41 37 100 13 100 -41 c 0 -29 -28 -57 -51 -51 c -10 3 -20 -2 -23 -10 c -10 -24 -7 -63 5 -63 c 5 0 8 -4 5 -9 c -6 -9 -135 -12 -150 -4 c -4 3 -3 9 4 13 c 9 5 9 13 2 26 c -9 16 -11 14 -26 -14 c -18 -34 -50 -43 -60 -16 c -8 21 2 59 32 119 c 16 32 21 50 13 53 c -21 7 0 22 31 22 c 24 0 29 -3 24 -16 z m 354 -15 c 0 -10 -6 -19 -14 -19 c -20 0 -36 -53 -42 -135 c -6 -81 -9 -95 -24 -95 c -8 0 -9 11 -5 31 c 5 21 2 34 -8 42 c -8 7 -20 44 -27 82 c -7 39 -17 80 -21 93 c -8 20 -6 22 27 22 c 29 0 34 -3 26 -13 c -8 -9 -7 -27 2 -62 c 13 -54 20 -52 31 13 c 10 63 55 97 55 41 z m 111 21 c 10 -6 26 -24 34 -40 l 16 -30 l -31 0 c -25 0 -30 4 -30 24 c 0 29 -19 44 -31 25 c -10 -16 -11 -78 -3 -132 c 5 -30 9 -35 20 -26 c 8 6 14 24 14 40 c 0 25 4 29 30 29 c 28 0 29 -1 18 -27 c -15 -37 -45 -63 -72 -63 c -16 0 -26 13 -44 53 c -28 67 -28 88 4 126 c 27 33 44 37 75 21 z m -617 -11 c -8 -14 16 -158 27 -165 c 19 -11 8 -24 -20 -24 c -28 0 -29 1 -35 70 c -4 39 -11 70 -16 70 c -14 0 -22 -57 -15 -100 c 6 -38 6 -40 -19 -40 c -34 0 -34 21 -1 102 c 28 70 30 84 13 91 c -7 3 6 6 30 6 c 29 1 41 -3 36 -10 z m 748 -1 c -7 -7 -12 -24 -12 -38 c 0 -32 17 -50 48 -50 c 21 0 23 -3 20 -47 l -3 -48 l -54 -3 c -30 -2 -59 2 -64 7 c -8 8 -7 11 1 11 c 17 0 17 166 0 173 c -7 3 7 6 32 6 c 34 1 41 -2 32 -11 z m -581 -361 c -5 -7 -8 -23 -4 -35 c 3 -12 0 -29 -7 -37 c -6 -8 -9 -19 -5 -25 c 4 -6 1 -17 -5 -25 c -6 -8 -9 -19 -5 -26 c 4 -6 3 -21 -3 -32 c -6 -12 -13 -30 -16 -39 c -4 -15 -17 -18 -63 -17 c -40 0 -52 3 -38 9 c 15 6 11 7 -17 7 c -23 -1 -38 -6 -38 -13 c 0 -18 28 -44 47 -44 c 11 0 7 8 -13 26 c -21 19 -23 23 -7 15 c 12 -6 35 -11 52 -11 c 37 0 41 -20 10 -51 l -20 -20 l 71 -72 l 71 -72 l 29 35 c 42 49 41 121 -2 105 c -7 -3 -18 -15 -23 -28 c -7 -14 -19 -22 -35 -22 c -21 0 -26 5 -28 31 c -3 29 1 34 47 58 c 72 37 101 32 130 -22 c 12 -22 14 -23 31 -7 c 16 14 17 20 7 36 c -18 30 3 55 43 51 c 20 -1 40 4 51 14 c 16 15 16 18 -12 63 c -16 26 -33 65 -36 86 c -3 22 -15 47 -26 56 c -30 24 -16 69 21 69 c 16 0 32 -8 40 -20 c 8 -13 23 -20 45 -20 c 19 0 56 -11 82 -25 c 45 -22 51 -23 66 -9 c 10 9 23 13 28 9 c 6 -3 11 1 11 10 c 0 8 11 21 25 27 c 21 9 28 8 45 -7 c 26 -23 26 -51 0 -65 c -11 -6 -20 -17 -20 -25 c 0 -7 -7 -20 -15 -29 c -14 -13 -13 -19 9 -51 c 14 -20 28 -57 32 -83 c 4 -26 15 -55 25 -65 c 11 -10 19 -23 19 -30 c 0 -36 -65 -51 -78 -19 c -5 12 -20 18 -50 19 c -31 1 -56 11 -91 36 l -48 35 l -14 -22 c -8 -11 -14 -37 -14 -56 c 0 -34 -2 -35 -36 -35 c -27 0 -46 -9 -75 -35 l -39 -34 l 33 -32 c 27 -27 32 -39 32 -78 c 0 -40 3 -46 21 -46 c 12 0 36 -15 55 -34 c 27 -27 34 -42 34 -72 c 0 -25 7 -45 21 -60 c 12 -13 22 -34 22 -48 c 0 -19 6 -25 32 -30 c 35 -7 59 -28 69 -63 c 10 -31 0 -29 -29 5 c -13 15 -27 23 -31 19 c -4 -4 33 -49 84 -100 c 87 -87 107 -117 80 -117 c -6 0 -54 41 -105 91 c -51 51 -96 89 -100 85 c -3 -3 4 -17 17 -31 l 23 -25 l -21 0 c -29 0 -62 34 -62 64 c 0 19 -7 25 -35 30 c -26 5 -36 13 -41 31 c -5 22 -12 25 -51 25 c -38 0 -50 5 -79 34 c -19 19 -34 41 -34 50 c 0 12 -10 16 -38 16 c -37 0 -75 19 -99 50 c -11 13 -18 9 -53 -28 c -37 -38 -40 -44 -26 -58 c 45 -44 -17 -101 -64 -59 c -15 13 -21 10 -60 -30 l -44 -45 l 43 -41 l 44 -41 l -22 -21 c -18 -19 -25 -20 -51 -10 c -32 12 -37 5 -20 -28 c 12 -22 -3 -59 -23 -59 c -7 0 -28 16 -47 35 c -39 40 -50 43 -75 15 c -23 -26 -27 -25 -59 7 l -27 26 l 26 27 c 14 14 25 30 25 34 c 0 4 -18 26 -41 48 l -41 41 l 20 20 c 17 17 25 18 51 9 c 34 -12 39 -5 20 29 c -8 16 -7 25 7 40 c 9 10 21 19 25 19 c 5 0 27 -18 51 -40 l 42 -41 l 40 40 c 32 32 38 43 28 53 c -17 17 -15 44 4 62 c 19 20 38 20 57 1 c 13 -12 17 -12 33 6 c 18 20 17 21 -14 45 c -38 30 -42 68 -12 107 c 11 14 20 30 20 36 c 0 6 12 17 26 23 c 22 11 28 10 40 -7 c 19 -26 18 -31 -16 -57 c -33 -24 -38 -43 -14 -52 c 31 -12 54 -6 88 24 l 34 30 l -67 65 c -37 36 -72 65 -78 65 c -6 0 -14 6 -17 13 c -3 6 -4 3 -1 -9 c 4 -15 -1 -24 -20 -32 c -14 -7 -33 -12 -42 -12 c -9 0 -13 -6 -10 -14 c 7 -17 -11 -36 -35 -36 c -10 0 -18 -4 -18 -10 c 0 -5 -9 -10 -20 -10 c -11 0 -20 5 -20 11 c 0 6 -7 3 -16 -6 c -10 -9 -25 -14 -35 -12 c -11 3 -22 1 -25 -5 c -3 -5 -18 -8 -32 -7 c -15 1 -40 -2 -55 -6 c -48 -13 -51 7 -9 61 c 37 47 73 120 86 176 c 7 31 31 58 51 58 c 24 0 65 -44 71 -75 c 3 -16 8 -32 11 -35 c 3 -3 3 5 0 18 c -4 18 -1 22 19 22 c 13 0 24 4 24 9 c 0 21 -112 111 -173 139 c -74 35 -107 74 -107 129 c 0 40 23 63 62 63 c 52 0 97 -36 129 -104 c 25 -53 124 -176 143 -176 c 3 0 6 6 6 14 c 0 9 13 16 33 19 c 28 4 27 4 -5 3 c -21 -1 -38 2 -38 6 c 0 3 -9 9 -19 13 c -21 7 -46 58 -38 79 c 3 8 29 22 58 31 c 85 28 131 52 174 89 l 40 34 l 8 -24 c 6 -15 5 -30 -2 -37 z m 216 -1146 c 10 9 13 7 13 -5 c 0 -22 -30 -33 -41 -15 c -13 20 -11 35 3 21 c 8 -8 15 -9 25 -1 z m -747 -38 c 0 -5 3 -43 5 -85 c 3 -49 1 -78 -5 -78 c -5 0 -10 7 -10 15 c 0 10 -10 15 -30 15 c -18 0 -33 -6 -36 -15 c -12 -31 -26 -15 -20 23 c 3 20 9 58 12 85 c 7 47 7 47 45 47 c 22 0 39 -3 39 -7 z m 108 -2 c 8 -4 13 -19 11 -32 c -1 -13 1 -34 5 -47 c 10 -30 -9 -52 -44 -52 c -27 0 -55 21 -44 33 c 4 3 19 3 35 0 c 33 -6 37 3 12 24 c -13 10 -15 16 -5 19 c 13 6 17 34 4 34 c -4 0 -13 -5 -20 -12 c -9 -9 -13 -7 -18 6 c -11 29 33 47 64 27 z m 142 -61 c 0 -56 -3 -70 -15 -70 c -9 0 -15 9 -15 25 c 0 14 -4 25 -8 25 c -5 0 -15 -11 -22 -25 c -7 -14 -22 -25 -33 -25 c -18 0 -18 2 -4 24 c 13 19 14 30 5 54 c -16 41 2 62 53 62 l 39 0 l 0 -70 z m 114 54 c 30 -30 16 -67 -29 -76 c -12 -2 -21 -13 -23 -26 c -2 -12 -10 -22 -18 -22 c -11 0 -14 15 -14 63 c 0 35 3 67 7 70 c 12 13 62 7 77 -9 z m 69 -4 l 14 -21 l 6 21 c 7 27 27 26 28 -2 l 0 -23 l 16 23 c 18 25 43 29 43 7 c 0 -8 -4 -15 -9 -15 c -18 0 -22 -39 -7 -69 c 20 -38 20 -41 -3 -41 c -10 0 -22 10 -26 23 l -8 22 l -4 -22 c -2 -13 -11 -23 -19 -23 c -8 0 -14 10 -15 23 l 0 22 l -11 -22 c -6 -13 -19 -23 -30 -23 c -17 0 -18 2 -3 30 c 19 37 19 64 0 80 c -15 12 -12 30 5 30 c 5 0 15 -9 23 -20 z m 215 -42 c 12 -35 22 -66 22 -70 c 0 -14 -23 -8 -36 10 c -11 14 -16 15 -31 4 c -53 -36 -58 -30 -32 39 c 11 30 22 60 24 67 c 10 28 32 8 53 -50 z m 76 35 l 14 -28 l 11 28 c 6 15 17 27 26 27 c 12 0 11 -10 -8 -62 c -22 -58 -48 -90 -62 -76 c -4 3 -1 15 6 25 c 9 15 8 26 -5 51 c -18 35 -21 62 -6 62 c 5 0 16 -12 24 -27 z m 116 2 c 0 -18 5 -25 20 -25 c 15 0 20 7 20 26 c 0 16 5 24 13 22 c 7 -3 13 -29 15 -71 c 2 -54 0 -67 -12 -67 c -9 0 -16 11 -18 27 c -2 17 -10 29 -20 31 c -14 3 -18 -3 -18 -27 c 0 -21 -5 -31 -15 -31 c -12 0 -15 14 -15 70 c 0 56 3 70 15 70 c 9 0 15 -9 15 -25 z m 186 -44 c 30 -79 25 -86 -29 -49 c -15 11 -20 10 -31 -4 c -11 -15 -36 -25 -36 -15 c 0 8 39 118 45 128 c 13 20 28 2 51 -60 z m 144 -1 c 0 -56 -3 -70 -15 -70 c -9 0 -15 9 -15 25 c 0 14 -5 25 -10 25 c -6 0 -16 -11 -22 -25 c -6 -14 -19 -25 -30 -25 c -22 0 -23 9 -3 37 c 10 14 12 24 5 28 c -16 10 -11 53 8 64 c 9 6 32 11 50 11 l 32 0 l 0 -70 z m -979 -177 l 11 -28 l 10 28 c 6 17 17 27 29 27 c 17 0 19 -8 19 -70 c 0 -56 -3 -70 -15 -70 c -8 0 -15 8 -15 18 c -1 16 -1 16 -11 0 c -14 -24 -28 -22 -39 5 l -9 22 l 0 -23 c -1 -14 -6 -22 -13 -20 c -8 3 -14 29 -16 71 c -3 62 -1 67 18 67 c 13 0 24 -10 31 -27 z m 129 2 c 0 -20 5 -25 24 -25 c 14 0 32 -7 40 -16 c 15 -14 16 -12 16 25 c 0 30 4 41 15 41 c 12 0 15 -14 15 -70 c 0 -56 -3 -70 -15 -70 c -8 0 -15 7 -15 17 c 0 15 -2 15 -19 -1 c -12 -11 -31 -16 -53 -14 l -33 3 l -3 68 c -2 55 0 67 13 67 c 9 0 15 -9 15 -25 z m 230 10 c 0 -8 -7 -15 -15 -15 c -12 0 -15 -13 -15 -55 c 0 -42 -3 -55 -15 -55 c -11 0 -15 13 -15 54 c 0 45 -3 54 -20 59 c -39 10 -20 27 30 27 c 38 0 50 -4 50 -15 z m 58 -13 c 5 -31 32 -28 32 3 c 0 19 5 25 20 25 c 19 0 21 -5 18 -67 c -2 -53 -6 -68 -18 -68 c -9 0 -16 11 -18 28 c -4 35 -30 35 -34 0 c -2 -14 -9 -28 -15 -31 c -10 -3 -13 15 -13 68 c 0 53 3 71 13 68 c 6 -3 13 -14 15 -26 z m 188 -39 c 15 -42 19 -65 12 -70 c -6 -3 -16 1 -23 10 c -15 21 -55 22 -55 2 c 0 -8 -7 -15 -15 -15 c -19 0 -19 4 6 79 c 27 79 44 78 75 -6 z m 142 0 c -2 -42 -8 -68 -15 -71 c -8 -2 -13 6 -13 22 c 0 33 -15 33 -36 1 c -9 -14 -23 -25 -30 -25 c -17 0 -17 5 -3 32 c 7 14 8 28 1 42 c -5 12 -6 31 -1 44 c 7 18 16 22 54 22 l 46 0 l -3 -67 z m -690 -155 c 17 -17 15 -38 -3 -38 c -8 0 -15 5 -15 10 c 0 12 -22 9 -32 -5 c -24 -32 8 -83 35 -56 c 17 17 27 13 27 -9 c 0 -42 -78 -46 -94 -5 c -26 69 37 148 82 103 z m 133 -5 c 2 -38 -3 -118 -7 -123 c -11 -10 -24 27 -24 68 c 0 23 -4 42 -10 42 c -5 0 -10 -15 -10 -32 c 0 -52 -11 -78 -31 -78 c -20 0 -26 15 -9 25 c 6 3 10 31 10 61 l 0 54 l 40 0 c 31 0 40 -4 41 -17 z m 64 -11 c 13 -28 19 -28 33 3 c 11 24 32 35 32 16 c 0 -14 -43 -115 -54 -128 c -7 -8 -16 -9 -26 -3 c -13 8 -13 11 2 22 c 16 12 16 16 -2 57 c -11 24 -20 48 -20 53 c 0 17 25 3 35 -20 z m 128 -4 c 3 -7 6 -3 6 10 c 1 29 31 30 31 0 l 0 -22 l 20 22 c 24 26 40 28 40 7 c 0 -8 -4 -15 -9 -15 c -18 0 -22 -39 -7 -69 c 20 -37 20 -41 1 -41 c -8 0 -21 12 -29 28 l -15 27 l -1 -27 c 0 -31 -30 -41 -30 -10 c -1 16 -1 16 -14 0 c -7 -10 -21 -18 -30 -18 c -15 0 -15 3 -1 30 c 20 38 19 67 -1 78 c -24 13 -8 35 16 22 c 10 -5 21 -15 23 -22 z m 210 18 c 4 -11 -3 -16 -26 -18 c -40 -4 -41 -21 -1 -28 c 26 -5 29 -9 29 -40 c 0 -35 0 -35 -47 -38 l -48 -3 l 0 64 c 0 35 3 67 7 70 c 13 13 81 7 86 -7 z m 116 -42 c 11 -31 21 -62 21 -70 c 0 -19 -26 -18 -34 1 c -8 22 -33 18 -47 -6 c -7 -14 -14 -18 -21 -11 c -13 13 29 142 46 142 c 7 0 23 -25 35 -56 z" stroke-linecap="round"/>
</g>
		<g transform="matrix(0.1333 0 0 -0.1333 -66.0953 -123.2129)">
<path style="stroke: none; stroke-width: 1; stroke-dasharray: none; stroke-linecap: butt; stroke-dashoffset: 0; stroke-linejoin: miter; stroke-miterlimit: 4; is-custom-font: none; font-file-url: none; fill: rgb(38,102,85); fill-rule: nonzero; opacity: 1;" transform=" translate(-1504.289, -2924.0877)" d="M 1490 2926 c 0 -26 4 -36 16 -36 c 11 0 14 8 12 32 c -4 46 -28 49 -28 4 z" stroke-linecap="round"/>
</g>
		<g transform="matrix(0.1333 0 0 -0.1333 16.6231 -136.0724)">
<path style="stroke: none; stroke-width: 1; stroke-dasharray: none; stroke-linecap: butt; stroke-dashoffset: 0; stroke-linejoin: miter; stroke-miterlimit: 4; is-custom-font: none; font-file-url: none; fill: rgb(38,102,85); fill-rule: nonzero; opacity: 1;" transform=" translate(-2124.6775, -3020.5341)" d="M 2116 3044 c -12 -31 -7 -64 9 -58 c 8 4 15 19 15 34 c 0 33 -15 48 -24 24 z" stroke-linecap="round"/>
</g>
		<g transform="matrix(0.1333 0 0 -0.1333 -7.4109 -128.6103)">
<path style="stroke: none; stroke-width: 1; stroke-dasharray: none; stroke-linecap: butt; stroke-dashoffset: 0; stroke-linejoin: miter; stroke-miterlimit: 4; is-custom-font: none; font-file-url: none; fill: rgb(38,102,85); fill-rule: nonzero; opacity: 1;" transform=" translate(-1944.4236, -2964.5671)" d="M 1935 2977 c -8 -21 -13 -42 -10 -48 c 17 -26 51 42 36 69 c -8 14 -12 11 -26 -21 z" stroke-linecap="round"/>
</g>
		<g transform="matrix(0.1333 0 0 -0.1333 79.2381 -123.2129)">
<path style="stroke: none; stroke-width: 1; stroke-dasharray: none; stroke-linecap: butt; stroke-dashoffset: 0; stroke-linejoin: miter; stroke-miterlimit: 4; is-custom-font: none; font-file-url: none; fill: rgb(38,102,85); fill-rule: nonzero; opacity: 1;" transform=" translate(-2594.289, -2924.0877)" d="M 2580 2926 c 0 -26 4 -36 16 -36 c 11 0 14 8 12 32 c -4 46 -28 49 -28 4 z" stroke-linecap="round"/>
</g>
		<g transform="matrix(0.1333 0 0 -0.1333 71.3326 -92.6674)">
<path style="stroke: none; stroke-width: 1; stroke-dasharray: none; stroke-linecap: butt; stroke-dashoffset: 0; stroke-linejoin: miter; stroke-miterlimit: 4; is-custom-font: none; font-file-url: none; fill: rgb(38,102,85); fill-rule: nonzero; opacity: 1;" transform=" translate(-2535, -2695)" d="M 2521 2706 c -9 -10 -8 -16 3 -25 c 10 -9 16 -8 25 3 c 9 10 8 16 -3 25 c -10 9 -16 8 -25 -3 z" stroke-linecap="round"/>
</g>
		<g transform="matrix(0.1333 0 0 -0.1333 -12.1792 -86.1765)">
<path style="stroke: none; stroke-width: 1; stroke-dasharray: none; stroke-linecap: butt; stroke-dashoffset: 0; stroke-linejoin: miter; stroke-miterlimit: 4; is-custom-font: none; font-file-url: none; fill: rgb(38,102,85); fill-rule: nonzero; opacity: 1;" transform=" translate(-1908.6582, -2646.3207)" d="M 1905 2649 c -4 -6 -5 -12 -2 -15 c 2 -3 7 2 10 11 c 7 17 1 20 -8 4 z" stroke-linecap="round"/>
</g>
		<g transform="matrix(0.1333 0 0 -0.1333 52.8243 -73.232)">
<path style="stroke: none; stroke-width: 1; stroke-dasharray: none; stroke-linecap: butt; stroke-dashoffset: 0; stroke-linejoin: miter; stroke-miterlimit: 4; is-custom-font: none; font-file-url: none; fill: rgb(38,102,85); fill-rule: nonzero; opacity: 1;" transform=" translate(-2396.2073, -2549.2154)" d="M 2312 2638 c -30 -30 -8 -90 38 -106 c 16 -6 30 -18 30 -26 c 0 -22 40 -56 66 -56 c 57 0 66 79 13 109 c -16 9 -32 24 -35 33 c -14 44 -85 73 -112 46 z" stroke-linecap="round"/>
</g>
		<g transform="matrix(0.1333 0 0 -0.1333 -25.89 -78.9421)">
<path style="stroke: none; stroke-width: 1; stroke-dasharray: none; stroke-linecap: butt; stroke-dashoffset: 0; stroke-linejoin: miter; stroke-miterlimit: 4; is-custom-font: none; font-file-url: none; fill: rgb(38,102,85); fill-rule: nonzero; opacity: 1;" transform=" translate(-1805.8301, -2592.0566)" d="M 1797 2606 c -17 -25 -13 -32 23 -50 c 8 -4 4 2 -10 14 l -25 21 l 25 -6 c 18 -4 21 -3 11 3 c -8 6 -11 17 -8 26 c 9 23 2 20 -16 -8 z" stroke-linecap="round"/>
</g>
		<g transform="matrix(0.1333 0 0 -0.1333 -12.2397 -81.3337)">
<path style="stroke: none; stroke-width: 1; stroke-dasharray: none; stroke-linecap: butt; stroke-dashoffset: 0; stroke-linejoin: miter; stroke-miterlimit: 4; is-custom-font: none; font-file-url: none; fill: rgb(38,102,85); fill-rule: nonzero; opacity: 1;" transform=" translate(-1908.2048, -2610)" d="M 1900 2610 c 0 -5 5 -10 11 -10 c 5 0 7 5 4 10 c -3 6 -8 10 -11 10 c -2 0 -4 -4 -4 -10 z" stroke-linecap="round"/>
</g>
		<g transform="matrix(0.1333 0 0 -0.1333 -20.934 -80.3081)">
<path style="stroke: none; stroke-width: 1; stroke-dasharray: none; stroke-linecap: butt; stroke-dashoffset: 0; stroke-linejoin: miter; stroke-miterlimit: 4; is-custom-font: none; font-file-url: none; fill: rgb(38,102,85); fill-rule: nonzero; opacity: 1;" transform=" translate(-1842.998, -2602.3088)" d="M 1830 2606 c 0 -2 7 -7 16 -10 c 8 -3 12 -2 9 4 c -6 10 -25 14 -25 6 z" stroke-linecap="round"/>
</g>
		<g transform="matrix(0.1333 0 0 -0.1333 -12.9336 -74.0444)">
<path style="stroke: none; stroke-width: 1; stroke-dasharray: none; stroke-linecap: butt; stroke-dashoffset: 0; stroke-linejoin: miter; stroke-miterlimit: 4; is-custom-font: none; font-file-url: none; fill: rgb(38,102,85); fill-rule: nonzero; opacity: 1;" transform=" translate(-1903.0024, -2555.3267)" d="M 1893 2561 c -13 -21 -8 -31 16 -30 c 12 0 11 3 -4 9 c -18 7 -19 8 -2 15 c 9 4 17 11 17 16 c 0 15 -15 10 -27 -10 z" stroke-linecap="round"/>
</g>
		<g transform="matrix(0.1333 0 0 -0.1333 -21.7855 -71.3001)">
<path style="stroke: none; stroke-width: 1; stroke-dasharray: none; stroke-linecap: butt; stroke-dashoffset: 0; stroke-linejoin: miter; stroke-miterlimit: 4; is-custom-font: none; font-file-url: none; fill: rgb(38,102,85); fill-rule: nonzero; opacity: 1;" transform=" translate(-1836.6132, -2534.75)" d="M 1823 2533 c 9 -2 23 -2 30 0 c 6 3 -1 5 -18 5 c -16 0 -22 -2 -12 -5 z" stroke-linecap="round"/>
</g>
		<g transform="matrix(0.1333 0 0 -0.1333 -14.0006 -68.3063)">
<path style="stroke: none; stroke-width: 1; stroke-dasharray: none; stroke-linecap: butt; stroke-dashoffset: 0; stroke-linejoin: miter; stroke-miterlimit: 4; is-custom-font: none; font-file-url: none; fill: rgb(38,102,85); fill-rule: nonzero; opacity: 1;" transform=" translate(-1895, -2512.2952)" d="M 1880 2510 c 0 -5 7 -7 15 -4 c 8 4 15 8 15 10 c 0 2 -7 4 -15 4 c -8 0 -15 -4 -15 -10 z" stroke-linecap="round"/>
</g>
		<g transform="matrix(0.1333 0 0 -0.1333 -8.5522 -66.0258)">
<path style="stroke: none; stroke-width: 1; stroke-dasharray: none; stroke-linecap: butt; stroke-dashoffset: 0; stroke-linejoin: miter; stroke-miterlimit: 4; is-custom-font: none; font-file-url: none; fill: rgb(38,102,85); fill-rule: nonzero; opacity: 1;" transform=" translate(-1935.8618, -2495.1924)" d="M 1928 2493 c 7 -3 16 -2 19 1 c 4 3 -2 6 -13 5 c -11 0 -14 -3 -6 -6 z" stroke-linecap="round"/>
</g>
		<g transform="matrix(0.1333 0 0 -0.1333 -46.6356 -50.9943)">
<path style="stroke: none; stroke-width: 1; stroke-dasharray: none; stroke-linecap: butt; stroke-dashoffset: 0; stroke-linejoin: miter; stroke-miterlimit: 4; is-custom-font: none; font-file-url: none; fill: rgb(38,102,85); fill-rule: nonzero; opacity: 1;" transform=" translate(-1650.2375, -2382.448)" d="M 1648 2413 c -19 -5 -22 -26 -7 -58 c 7 -15 8 -12 3 13 c -3 19 -1 32 5 32 c 5 0 12 -12 14 -27 c 3 -23 4 -21 6 10 c 0 20 0 36 -1 36 c -2 -1 -11 -3 -20 -6 z" stroke-linecap="round"/>
</g>
		<g transform="matrix(0.1333 0 0 -0.1333 -37.9668 -50.2157)">
<path style="stroke: none; stroke-width: 1; stroke-dasharray: none; stroke-linecap: butt; stroke-dashoffset: 0; stroke-linejoin: miter; stroke-miterlimit: 4; is-custom-font: none; font-file-url: none; fill: rgb(38,102,85); fill-rule: nonzero; opacity: 1;" transform=" translate(-1715.25, -2376.6132)" d="M 1712 2375 c 0 -16 2 -22 5 -12 c 2 9 2 23 0 30 c -3 6 -5 -1 -5 -18 z" stroke-linecap="round"/>
</g>
		<g transform="matrix(0.1333 0 0 -0.1333 -30.7794 -47.9474)">
<path style="stroke: none; stroke-width: 1; stroke-dasharray: none; stroke-linecap: butt; stroke-dashoffset: 0; stroke-linejoin: miter; stroke-miterlimit: 4; is-custom-font: none; font-file-url: none; fill: rgb(38,102,85); fill-rule: nonzero; opacity: 1;" transform=" translate(-1769.1613, -2359.597)" d="M 1755 2392 c -6 -4 -11 -22 -12 -40 c -1 -32 -1 -33 14 -13 c 8 12 11 27 7 34 c -5 8 -2 7 9 -2 c 24 -19 32 -8 9 12 c -9 9 -22 13 -27 9 z" stroke-linecap="round"/>
</g>
		<g transform="matrix(0.1333 0 0 -0.1333 -55.3165 -44.9608)">
<path style="stroke: none; stroke-width: 1; stroke-dasharray: none; stroke-linecap: butt; stroke-dashoffset: 0; stroke-linejoin: miter; stroke-miterlimit: 4; is-custom-font: none; font-file-url: none; fill: rgb(38,102,85); fill-rule: nonzero; opacity: 1;" transform=" translate(-1585.1288, -2337.2033)" d="M 1577 2336 c -4 -10 -1 -13 8 -9 c 8 3 12 9 9 14 c -7 12 -11 11 -17 -5 z" stroke-linecap="round"/>
</g>
		<g transform="matrix(0.1333 0 0 -0.1333 -37.1525 -40.3294)">
<path style="stroke: none; stroke-width: 1; stroke-dasharray: none; stroke-linecap: butt; stroke-dashoffset: 0; stroke-linejoin: miter; stroke-miterlimit: 4; is-custom-font: none; font-file-url: none; fill: rgb(38,102,85); fill-rule: nonzero; opacity: 1;" transform=" translate(-1721.358, -2302.4617)" d="M 1715 2321 c -3 -10 -1 -29 4 -42 c 9 -21 10 -19 10 19 c 1 45 -4 54 -14 23 z" stroke-linecap="round"/>
</g>
		<g transform="matrix(0.1333 0 0 -0.1333 -45.9535 -39.7879)">
<path style="stroke: none; stroke-width: 1; stroke-dasharray: none; stroke-linecap: butt; stroke-dashoffset: 0; stroke-linejoin: miter; stroke-miterlimit: 4; is-custom-font: none; font-file-url: none; fill: rgb(38,102,85); fill-rule: nonzero; opacity: 1;" transform=" translate(-1655.3526, -2298.4045)" d="M 1644 2309 c -4 -7 -3 -9 4 -5 c 6 3 13 -2 15 -11 c 4 -16 5 -16 6 -1 c 1 21 -15 32 -25 17 z" stroke-linecap="round"/>
</g>
		<g transform="matrix(0.1333 0 0 -0.1333 -54.4276 -38.667)">
<path style="stroke: none; stroke-width: 1; stroke-dasharray: none; stroke-linecap: butt; stroke-dashoffset: 0; stroke-linejoin: miter; stroke-miterlimit: 4; is-custom-font: none; font-file-url: none; fill: rgb(38,102,85); fill-rule: nonzero; opacity: 1;" transform=" translate(-1591.7952, -2290)" d="M 1585 2290 c 3 -5 8 -10 11 -10 c 2 0 4 5 4 10 c 0 6 -5 10 -11 10 c -5 0 -7 -4 -4 -10 z" stroke-linecap="round"/>
</g>
		<g transform="matrix(0.1333 0 0 -0.1333 -49.3336 -38.0004)">
<path style="stroke: none; stroke-width: 1; stroke-dasharray: none; stroke-linecap: butt; stroke-dashoffset: 0; stroke-linejoin: miter; stroke-miterlimit: 4; is-custom-font: none; font-file-url: none; fill: rgb(38,102,85); fill-rule: nonzero; opacity: 1;" transform=" translate(-1630, -2285)" d="M 1620 2291 c 0 -5 5 -13 10 -16 c 6 -3 10 -2 10 4 c 0 5 -4 13 -10 16 c -5 3 -10 2 -10 -4 z" stroke-linecap="round"/>
</g>
		<g transform="matrix(0.1333 0 0 -0.1333 15.9952 -19.6932)">
<path style="stroke: none; stroke-width: 1; stroke-dasharray: none; stroke-linecap: butt; stroke-dashoffset: 0; stroke-linejoin: miter; stroke-miterlimit: 4; is-custom-font: none; font-file-url: none; fill: rgb(38,102,85); fill-rule: nonzero; opacity: 1;" transform=" translate(-2119.9744, -2147.6884)" d="M 2080 2180 c 0 -16 61 -80 71 -74 c 14 8 11 54 -5 70 c -16 16 -66 19 -66 4 z" stroke-linecap="round"/>
</g>
		<g transform="matrix(0.1333 0 0 -0.1333 8.4301 -12.3587)">
<path style="stroke: none; stroke-width: 1; stroke-dasharray: none; stroke-linecap: butt; stroke-dashoffset: 0; stroke-linejoin: miter; stroke-miterlimit: 4; is-custom-font: none; font-file-url: none; fill: rgb(38,102,85); fill-rule: nonzero; opacity: 1;" transform=" translate(-2063.2355, -2092.6802)" d="M 2027 2119 c -11 -42 32 -82 68 -62 c 12 7 8 16 -24 47 c -37 36 -39 37 -44 15 z" stroke-linecap="round"/>
</g>
		<g transform="matrix(0.1333 0 0 -0.1333 32.9544 -0.0014)">
<path style="stroke: none; stroke-width: 1; stroke-dasharray: none; stroke-linecap: butt; stroke-dashoffset: 0; stroke-linejoin: miter; stroke-miterlimit: 4; is-custom-font: none; font-file-url: none; fill: rgb(38,102,85); fill-rule: nonzero; opacity: 1;" transform=" translate(-2247.1687, -2000)" d="M 2245 2000 c 21 -22 39 -40 40 -40 c 0 0 2 12 3 26 c 3 36 -14 54 -51 54 l -31 0 l 39 -40 z" stroke-linecap="round"/>
</g>
		<g transform="matrix(0.1333 0 0 -0.1333 26.4242 4.2816)">
<path style="stroke: none; stroke-width: 1; stroke-dasharray: none; stroke-linecap: butt; stroke-dashoffset: 0; stroke-linejoin: miter; stroke-miterlimit: 4; is-custom-font: none; font-file-url: none; fill: rgb(38,102,85); fill-rule: nonzero; opacity: 1;" transform=" translate(-2198.1883, -1967.8789)" d="M 2170 1977 c 0 -20 7 -31 25 -39 c 39 -18 42 -1 7 35 l -32 32 l 0 -28 z" stroke-linecap="round"/>
</g>
		<g transform="matrix(0.1333 0 0 -0.1333 -51.9553 18.6659)">
<path style="stroke: none; stroke-width: 1; stroke-dasharray: none; stroke-linecap: butt; stroke-dashoffset: 0; stroke-linejoin: miter; stroke-miterlimit: 4; is-custom-font: none; font-file-url: none; fill: rgb(38,102,85); fill-rule: nonzero; opacity: 1;" transform=" translate(-1610.3393, -1860)" d="M 1597 1860 c 3 -11 12 -20 21 -20 c 13 0 12 3 -3 20 c -10 11 -19 20 -21 20 c -1 0 0 -9 3 -20 z" stroke-linecap="round"/>
</g>
		<g transform="matrix(0.1333 0 0 -0.1333 -58.6672 25.9994)">
<path style="stroke: none; stroke-width: 1; stroke-dasharray: none; stroke-linecap: butt; stroke-dashoffset: 0; stroke-linejoin: miter; stroke-miterlimit: 4; is-custom-font: none; font-file-url: none; fill: rgb(38,102,85); fill-rule: nonzero; opacity: 1;" transform=" translate(-1560, -1805)" d="M 1550 1805 c 7 -8 17 -15 22 -15 c 6 0 5 7 -2 15 c -7 8 -17 15 -22 15 c -6 0 -5 -7 2 -15 z" stroke-linecap="round"/>
</g>
		<g transform="matrix(0.1333 0 0 -0.1333 -41.2072 31.5244)">
<path style="stroke: none; stroke-width: 1; stroke-dasharray: none; stroke-linecap: butt; stroke-dashoffset: 0; stroke-linejoin: miter; stroke-miterlimit: 4; is-custom-font: none; font-file-url: none; fill: rgb(38,102,85); fill-rule: nonzero; opacity: 1;" transform=" translate(-1690.9504, -1763.5641)" d="M 1676 1772 c -3 -6 1 -13 10 -16 c 23 -9 28 -2 10 13 c -8 7 -17 8 -20 3 z" stroke-linecap="round"/>
</g>
		<g transform="matrix(0.1333 0 0 -0.1333 -47.3783 38.5418)">
<path style="stroke: none; stroke-width: 1; stroke-dasharray: none; stroke-linecap: butt; stroke-dashoffset: 0; stroke-linejoin: miter; stroke-miterlimit: 4; is-custom-font: none; font-file-url: none; fill: rgb(38,102,85); fill-rule: nonzero; opacity: 1;" transform=" translate(-1644.6664, -1710.9314)" d="M 1630 1721 c 0 -5 7 -14 15 -21 c 16 -14 18 -10 9 14 c -6 17 -24 22 -24 7 z" stroke-linecap="round"/>
</g>
		<g transform="matrix(0.1333 0 0 -0.1333 -74.931 74.0269)">
<path style="stroke: none; stroke-width: 1; stroke-dasharray: none; stroke-linecap: butt; stroke-dashoffset: 0; stroke-linejoin: miter; stroke-miterlimit: 4; is-custom-font: none; font-file-url: none; fill: rgb(38,102,85); fill-rule: nonzero; opacity: 1;" transform=" translate(-1438.0223, -1444.7893)" d="M 1430 1468 c 0 -7 -3 -23 -6 -35 c -5 -17 -2 -23 9 -23 c 17 0 26 24 19 53 c -5 19 -22 23 -22 5 z" stroke-linecap="round"/>
</g>
		<g transform="matrix(0.1333 0 0 -0.1333 -42.3665 70.1066)">
<path style="stroke: none; stroke-width: 1; stroke-dasharray: none; stroke-linecap: butt; stroke-dashoffset: 0; stroke-linejoin: miter; stroke-miterlimit: 4; is-custom-font: none; font-file-url: none; fill: rgb(38,102,85); fill-rule: nonzero; opacity: 1;" transform=" translate(-1682.2555, -1474.1965)" d="M 1672 1483 c -15 -6 -6 -23 14 -23 c 8 0 14 7 14 15 c 0 15 -6 17 -28 8 z" stroke-linecap="round"/>
</g>
		<g transform="matrix(0.1333 0 0 -0.1333 -25.6548 70.2646)">
<path style="stroke: none; stroke-width: 1; stroke-dasharray: none; stroke-linecap: butt; stroke-dashoffset: 0; stroke-linejoin: miter; stroke-miterlimit: 4; is-custom-font: none; font-file-url: none; fill: rgb(38,102,85); fill-rule: nonzero; opacity: 1;" transform=" translate(-1807.5939, -1473.0123)" d="M 1796 1483 c -11 -11 -6 -23 8 -23 c 8 0 17 4 20 9 c 7 10 -19 23 -28 14 z" stroke-linecap="round"/>
</g>
		<g transform="matrix(0.1333 0 0 -0.1333 79.9266 69.8388)">
<path style="stroke: none; stroke-width: 1; stroke-dasharray: none; stroke-linecap: butt; stroke-dashoffset: 0; stroke-linejoin: miter; stroke-miterlimit: 4; is-custom-font: none; font-file-url: none; fill: rgb(38,102,85); fill-rule: nonzero; opacity: 1;" transform=" translate(-2599.4534, -1476.2048)" d="M 2585 1481 c -7 -12 12 -24 25 -16 c 11 7 4 25 -10 25 c -5 0 -11 -4 -15 -9 z" stroke-linecap="round"/>
</g>
		<g transform="matrix(0.1333 0 0 -0.1333 -23.89 105.8661)">
<path style="stroke: none; stroke-width: 1; stroke-dasharray: none; stroke-linecap: butt; stroke-dashoffset: 0; stroke-linejoin: miter; stroke-miterlimit: 4; is-custom-font: none; font-file-url: none; fill: rgb(38,102,85); fill-rule: nonzero; opacity: 1;" transform=" translate(-1820.8305, -1206.0007)" d="M 1802 1208 c 7 -19 38 -22 38 -4 c 0 10 -9 16 -21 16 c -12 0 -19 -5 -17 -12 z" stroke-linecap="round"/>
</g>
		<g transform="matrix(0.1333 0 0 -0.1333 49.0507 98.6663)">
<path style="stroke: none; stroke-width: 1; stroke-dasharray: none; stroke-linecap: butt; stroke-dashoffset: 0; stroke-linejoin: miter; stroke-miterlimit: 4; is-custom-font: none; font-file-url: none; fill: rgb(38,102,85); fill-rule: nonzero; opacity: 1;" transform=" translate(-2367.8848, -1260)" d="M 2350 1260 c 0 -5 9 -10 21 -10 c 11 0 17 5 14 10 c -3 6 -13 10 -21 10 c -8 0 -14 -4 -14 -10 z" stroke-linecap="round"/>
</g>
		<g transform="matrix(0.1333 0 0 -0.1333 29.6147 134.6663)">
<path style="stroke: none; stroke-width: 1; stroke-dasharray: none; stroke-linecap: butt; stroke-dashoffset: 0; stroke-linejoin: miter; stroke-miterlimit: 4; is-custom-font: none; font-file-url: none; fill: rgb(38,102,85); fill-rule: nonzero; opacity: 1;" transform=" translate(-2222.1152, -990)" d="M 2205 990 c -3 -5 3 -10 14 -10 c 12 0 21 5 21 10 c 0 6 -6 10 -14 10 c -8 0 -18 -4 -21 -10 z" stroke-linecap="round"/>
</g>
</g>
</g>
</svg>